<svg width="14" height="14" viewBox="0 0 14 14" fill="none" xmlns="http://www.w3.org/2000/svg">
<path d="M10.1756 0H3.82415C3.29735 0 2.80037 0.0993953 2.3332 0.29819C1.87598 0.496984 1.47342 0.770321 1.12553 1.11821C0.777646 1.4661 0.504308 1.87362 0.305514 2.34079C0.106719 2.79801 0.00732422 3.29002 0.00732422 3.81683V10.1832C0.00732422 10.7 0.106719 11.192 0.305514 11.6592C0.504308 12.1264 0.777646 12.5314 1.12553 12.8743C1.47342 13.2173 1.87598 13.4881 2.3332 13.6869C2.80037 13.8956 3.29735 14 3.82415 14H10.1756C10.7024 14 11.1994 13.8956 11.6665 13.6869C12.1238 13.4881 12.5263 13.2173 12.8742 12.8743C13.2221 12.5314 13.4954 12.1264 13.6942 11.6592C13.893 11.192 13.9924 10.7 13.9924 10.1832V3.81683C13.9924 3.29002 13.893 2.79801 13.6942 2.34079C13.4954 1.87362 13.2221 1.4661 12.8742 1.11821C12.5263 0.770321 12.1238 0.496984 11.6665 0.29819C11.1994 0.0993953 10.7024 0 10.1756 0ZM12.7251 10.1832C12.7251 10.879 12.4766 11.4753 11.9796 11.9723C11.4827 12.4693 10.8813 12.7178 10.1756 12.7178H3.82415C3.11843 12.7178 2.51709 12.4693 2.0201 11.9723C1.52312 11.4753 1.27463 10.879 1.27463 10.1832V3.81683C1.27463 3.12105 1.52312 2.52219 2.0201 2.02023C2.51709 1.51828 3.11843 1.26731 3.82415 1.26731H10.1756C10.8813 1.26731 11.4827 1.51828 11.9796 2.02023C12.4766 2.52219 12.7251 3.12105 12.7251 3.81683V10.1832ZM7.50679 3.81683C7.34776 3.78701 7.18872 3.7721 7.02969 3.7721C6.87065 3.7721 6.71162 3.78701 6.55259 3.81683C6.12518 3.87646 5.73257 4.02059 5.37474 4.2492C5.01691 4.47781 4.71872 4.75612 4.48017 5.08413C4.24162 5.41214 4.06767 5.77991 3.95834 6.18743C3.849 6.59496 3.82415 7.01242 3.88379 7.43983C3.94343 7.8573 4.08258 8.24743 4.30125 8.61022C4.51993 8.97302 4.80321 9.28363 5.1511 9.54207C5.43935 9.73092 5.7425 9.88498 6.06057 10.0043C6.37864 10.1235 6.71162 10.1832 7.05951 10.1832C7.12909 10.1832 7.20612 10.1807 7.29061 10.1757C7.37509 10.1707 7.44715 10.1484 7.50679 10.1086C7.92426 10.049 8.31439 9.90983 8.67719 9.69116C9.03999 9.47249 9.3506 9.18921 9.60903 8.84132C9.86746 8.49343 10.0439 8.11821 10.1383 7.71566C10.2327 7.3131 10.2452 6.90309 10.1756 6.48562C10.0861 5.78984 9.7954 5.19596 9.30338 4.70394C8.81137 4.21193 8.21251 3.91622 7.50679 3.81683ZM8.59518 8.08094C8.43615 8.26979 8.2473 8.43628 8.02862 8.58041C7.80995 8.72453 7.5714 8.8115 7.31297 8.84132C6.80604 8.90096 6.3364 8.7792 5.90402 8.47604C5.47165 8.17288 5.22067 7.76287 5.1511 7.24601C5.06164 6.73908 5.17843 6.26944 5.50147 5.83706C5.82451 5.40468 6.23948 5.15371 6.74641 5.08413C6.77623 5.08413 6.81847 5.08413 6.87314 5.08413C6.92781 5.08413 6.97005 5.08413 6.99987 5.08413C7.02969 5.08413 7.07193 5.08413 7.1266 5.08413C7.18127 5.08413 7.22351 5.08413 7.25333 5.08413C7.6708 5.15371 8.02365 5.33262 8.3119 5.62087C8.60016 5.90913 8.77907 6.26198 8.84865 6.67945C8.90828 6.93788 8.91077 7.18885 8.8561 7.43238C8.80143 7.6759 8.71446 7.89208 8.59518 8.08094ZM10.0563 3.05644C9.98674 3.11608 9.93704 3.18069 9.90722 3.25027C9.8774 3.31984 9.86249 3.40433 9.86249 3.50373C9.86249 3.59318 9.8774 3.6727 9.90722 3.74228C9.93704 3.81186 9.98674 3.88143 10.0563 3.95101C10.116 4.01065 10.188 4.05538 10.2725 4.0852C10.357 4.11502 10.434 4.12993 10.5036 4.12993C10.5931 4.12993 10.6726 4.11502 10.7421 4.0852C10.8117 4.05538 10.8813 4.01065 10.9509 3.95101C11.0105 3.88143 11.0552 3.8044 11.0851 3.71991C11.1149 3.63543 11.1298 3.56337 11.1298 3.50373C11.1298 3.40433 11.1149 3.31984 11.0851 3.25027C11.0552 3.18069 11.0105 3.11608 10.9509 3.05644C10.8217 2.92723 10.6726 2.86262 10.5036 2.86262C10.3346 2.86262 10.1855 2.92723 10.0563 3.05644Z" fill="white"/>
</svg>
