<svg width="16" height="16" viewBox="0 0 16 16" fill="none" xmlns="http://www.w3.org/2000/svg">
<path d="M11.1761 1H4.82464C4.29783 1 3.80086 1.0994 3.33369 1.29819C2.87646 1.49698 2.47391 1.77032 2.12602 2.11821C1.77813 2.4661 1.5048 2.87362 1.306 3.34079C1.10721 3.79801 1.00781 4.29002 1.00781 4.81683V11.1832C1.00781 11.7 1.10721 12.192 1.306 12.6592C1.5048 13.1264 1.77813 13.5314 2.12602 13.8743C2.47391 14.2173 2.87646 14.4881 3.33369 14.6869C3.80086 14.8956 4.29783 15 4.82464 15H11.1761C11.7029 15 12.1999 14.8956 12.667 14.6869C13.1243 14.4881 13.5268 14.2173 13.8747 13.8743C14.2226 13.5314 14.4959 13.1264 14.6947 12.6592C14.8935 12.192 14.9929 11.7 14.9929 11.1832V4.81683C14.9929 4.29002 14.8935 3.79801 14.6947 3.34079C14.4959 2.87362 14.2226 2.4661 13.8747 2.11821C13.5268 1.77032 13.1243 1.49698 12.667 1.29819C12.1999 1.0994 11.7029 1 11.1761 1ZM13.7256 11.1832C13.7256 11.879 13.4771 12.4753 12.9801 12.9723C12.4831 13.4693 11.8818 13.7178 11.1761 13.7178H4.82464C4.11892 13.7178 3.51758 13.4693 3.02059 12.9723C2.52361 12.4753 2.27512 11.879 2.27512 11.1832V4.81683C2.27512 4.12105 2.52361 3.52219 3.02059 3.02023C3.51758 2.51828 4.11892 2.26731 4.82464 2.26731H11.1761C11.8818 2.26731 12.4831 2.51828 12.9801 3.02023C13.4771 3.52219 13.7256 4.12105 13.7256 4.81683V11.1832ZM8.50728 4.81683C8.34824 4.78701 8.18921 4.7721 8.03018 4.7721C7.87114 4.7721 7.71211 4.78701 7.55307 4.81683C7.12567 4.87646 6.73305 5.02059 6.37522 5.2492C6.0174 5.47781 5.71921 5.75612 5.48066 6.08413C5.2421 6.41214 5.06816 6.77991 4.95882 7.18743C4.84949 7.59496 4.82464 8.01242 4.88428 8.43983C4.94391 8.8573 5.08307 9.24742 5.30174 9.61022C5.52042 9.97302 5.80369 10.2836 6.15158 10.5421C6.43983 10.7309 6.74299 10.885 7.06106 11.0043C7.37913 11.1235 7.71211 11.1832 8.06 11.1832C8.12957 11.1832 8.2066 11.1807 8.29109 11.1757C8.37558 11.1707 8.44764 11.1484 8.50728 11.1086C8.92475 11.049 9.31487 10.9098 9.67767 10.6912C10.0405 10.4725 10.3511 10.1892 10.6095 9.84132C10.8679 9.49343 11.0444 9.11821 11.1388 8.71565C11.2332 8.3131 11.2457 7.90309 11.1761 7.48562C11.0866 6.78984 10.7959 6.19596 10.3039 5.70394C9.81186 5.21193 9.213 4.91622 8.50728 4.81683ZM9.59567 9.08094C9.43664 9.26979 9.24779 9.43628 9.02911 9.5804C8.81044 9.72453 8.57189 9.8115 8.31346 9.84132C7.80653 9.90096 7.33689 9.7792 6.90451 9.47604C6.47213 9.17288 6.22116 8.76287 6.15158 8.24601C6.06213 7.73908 6.17892 7.26944 6.50196 6.83706C6.825 6.40468 7.23997 6.15371 7.7469 6.08413C7.77672 6.08413 7.81896 6.08413 7.87363 6.08413C7.9283 6.08413 7.97054 6.08413 8.00036 6.08413C8.03018 6.08413 8.07242 6.08413 8.12709 6.08413C8.18176 6.08413 8.224 6.08413 8.25382 6.08413C8.67129 6.15371 9.02414 6.33262 9.31239 6.62087C9.60064 6.90912 9.77956 7.26198 9.84913 7.67945C9.90877 7.93788 9.91126 8.18885 9.85659 8.43237C9.80192 8.6759 9.71495 8.89208 9.59567 9.08094ZM11.0568 4.05644C10.9872 4.11608 10.9375 4.18069 10.9077 4.25027C10.8779 4.31984 10.863 4.40433 10.863 4.50373C10.863 4.59318 10.8779 4.6727 10.9077 4.74228C10.9375 4.81186 10.9872 4.88143 11.0568 4.95101C11.1164 5.01065 11.1885 5.05538 11.273 5.0852C11.3575 5.11502 11.4345 5.12993 11.5041 5.12993C11.5935 5.12993 11.6731 5.11502 11.7426 5.0852C11.8122 5.05538 11.8818 5.01065 11.9514 4.95101C12.011 4.88143 12.0557 4.8044 12.0856 4.71991C12.1154 4.63543 12.1303 4.56337 12.1303 4.50373C12.1303 4.40433 12.1154 4.31984 12.0856 4.25027C12.0557 4.18069 12.011 4.11608 11.9514 4.05644C11.8222 3.92723 11.6731 3.86262 11.5041 3.86262C11.3351 3.86262 11.186 3.92723 11.0568 4.05644Z" fill="#242021"/>
</svg>
