<svg width="180" height="100" viewBox="0 0 180 100" fill="none" xmlns="http://www.w3.org/2000/svg">
<g clip-path="url(#clip0_2416_6577)">
<path d="M70.0082 48.4831L71.1946 49.1374V47.4615V46.0237V40.2641L70.8987 39.9685L70.6447 39.7159C70.2427 39.3142 68.5818 38.0027 64.1099 38.0027C62.6835 38.0027 61.3799 38.2495 60.241 38.7259H14.5201V53.5827C14.5201 53.5827 14.4894 53.6028 14.4336 53.6028C14.2689 53.6028 14.1796 53.6 14.1293 53.5942C14.121 53.5856 14.1126 53.577 14.0986 53.5655L12.6694 52.0962L11.0029 50.3829V60.1919L11.4663 60.4874L11.8627 60.74C13.1635 61.5693 14.6625 62.0084 16.1978 62.0084C17.2892 62.0084 18.3528 61.7903 19.3577 61.3627C20.3235 60.9495 21.1861 60.3669 21.9174 59.6437V61.5062H36.4887V53.0432H36.0365V47.4845H38.5627V61.598H48.3718V47.4845H48.8938L48.7347 48.2622L48.4835 49.4761H56.1962L56.4475 48.8619L56.5033 48.7242C57.2961 50.0701 58.5354 51.152 59.6046 52.0417C59.13 51.8322 58.6834 51.6169 58.3289 51.4304L57.109 50.7847L55.6854 50.0299V51.6772V53.0891V59.0985L56.0204 59.3998L56.3079 59.6581C56.4167 59.7556 57.0197 60.2665 58.1781 60.7314C59.6157 61.3082 61.3185 61.6009 63.239 61.6009C65.6815 61.6009 67.9119 60.7715 69.5169 59.2678C71.1834 57.7066 72.1018 55.5026 72.1018 53.0576C72.1018 51.1262 71.1695 49.6626 70.011 48.4975L70.0082 48.4831ZM35.5089 40.5884V46.1816H30.8556V46.7383H35.0539V53.1925H30.8556V54.0362H35.5089V60.4903H22.8916V56.4181C22.1659 58.1974 20.7869 59.6523 18.9808 60.4243C18.096 60.8031 17.158 60.9954 16.195 60.9954C14.8411 60.9954 13.5208 60.608 12.3735 59.879L11.9771 59.6265V52.8022L13.4064 54.2715C13.6883 54.5613 13.8223 54.6044 14.4308 54.6044C15.0393 54.6044 15.4943 54.1624 15.4943 53.5799V39.7274H35.5061V40.5884H35.5089ZM68.8554 58.5102C67.429 59.8475 65.4331 60.5821 63.2334 60.5821C61.433 60.5821 59.8502 60.3124 58.5271 59.7815C57.497 59.3682 56.9974 58.9349 56.9443 58.8861L56.6568 58.6278V51.6629L57.8767 52.3086C58.7308 52.762 61.2236 53.9329 62.477 53.9329C62.5858 53.9329 62.6584 53.9242 62.7058 53.9128C62.6751 53.2843 61.5167 52.3258 60.495 51.4792C58.7839 50.0644 56.6568 48.2995 56.6568 45.8573C56.6568 45.8142 56.6568 45.7712 56.6596 45.7281L55.758 47.9293L55.543 48.4573H49.6838L49.8988 47.4184L50.0942 46.4657H47.3893V60.5793H39.5342V46.4685H35.869V39.7274H51.0544V41.8109L51.3447 40.4104L51.4843 39.7274H59.1189L58.6304 40.9213C59.9284 39.6987 61.8126 39.0042 64.1071 39.0042C68.406 39.0042 69.8156 40.287 69.9608 40.4334L70.2148 40.6859V47.4586L68.981 46.7785C67.9649 46.2189 65.9969 45.3321 65.0395 45.3321C64.9892 45.3321 64.9474 45.3321 64.9167 45.3379C64.9976 45.8315 66.0919 46.635 66.9795 47.2836C68.8247 48.6352 71.1192 50.3169 71.1192 53.0432C71.1192 55.1984 70.3153 57.1413 68.8526 58.5102H68.8554Z" fill="white"/>
<path d="M83.7165 44.1758C83.4345 44.1758 83.1666 44.2332 82.9209 44.3336C82.9014 44.3422 82.8818 44.348 82.8623 44.3566V48.3972C83.1247 48.5149 83.4122 48.5809 83.7137 48.5809C84.8973 48.5809 85.8547 47.5937 85.8547 46.3798C85.8547 45.7685 85.6119 45.2175 85.2211 44.8186C84.8331 44.4226 84.2999 44.1787 83.7109 44.1787L83.7165 44.1758ZM83.8393 47.5679V45.1859C84.1017 45.2146 84.3446 45.3323 84.5372 45.5274C84.7577 45.7542 84.8805 46.0555 84.8805 46.3769C84.8805 46.9939 84.4227 47.5047 83.8393 47.5679Z" fill="white"/>
<path d="M154.979 52.0159H158.133L156.556 46.9077L154.979 52.0159ZM156.316 51.0115L156.559 50.2281L156.802 51.0115H156.319H156.316Z" fill="white"/>
<path d="M165.977 41.6388C166.05 41.5785 166.086 41.4953 166.086 41.392C166.086 41.2628 166.036 41.1739 165.941 41.1222C165.874 41.0849 165.779 41.0706 165.656 41.0706H165.38V41.7249H165.656C165.796 41.7249 165.905 41.6962 165.977 41.6416V41.6388Z" fill="white"/>
<path d="M164.361 44.1815C164.752 44.4111 165.204 44.5459 165.684 44.5459C167.167 44.5459 168.372 43.3062 168.372 41.7823C168.372 40.2585 167.169 39.0273 165.693 39.0273C164.568 39.0273 163.605 39.7391 163.205 40.7463L162.628 39.0273H150.49L144.305 57.4026V53.9875H136.863L145.505 39.0273H103.575V45.9751H111.017L103.48 59.0211V39.0273H93.4727V43.2C92.2473 40.7263 89.7489 39.0273 86.8709 39.0273H73.835V60.9353H83.8422V53.5858C84.7885 54.022 85.8242 54.2544 86.8709 54.2544C89.7517 54.2544 92.25 52.5555 93.4727 50.0818V60.9353H153.254L154.331 57.4399H158.784L159.861 60.9353H170.003L164.361 44.1815ZM86.8682 53.25C85.3524 53.25 83.9623 52.7105 82.8625 51.8094V59.9337H74.8092V40.0318H86.8682C90.4189 40.0318 93.2968 42.9905 93.2968 46.6409C93.2968 50.2912 90.4189 53.25 86.8682 53.25ZM102.5 59.9308H94.4469V40.0318H102.5V59.9308ZM122.987 59.9308H104.089L106.941 54.992L112.731 44.9707H104.549V40.0318H123.447L120.594 44.9707L114.805 54.992H122.987V59.9308ZM116.522 53.9875L123.908 41.1998V45.9751H131.35L123.964 58.7628V53.9875H116.522ZM143.325 59.9308H124.427L127.28 54.992L133.069 44.9707H124.887V40.0318H143.785L140.933 44.9707L135.143 54.992H143.325V59.9308ZM165.693 40.0318C166.628 40.0318 167.395 40.821 167.395 41.7823C167.395 42.7437 166.636 43.5415 165.684 43.5415C164.732 43.5415 163.981 42.7609 163.981 41.7823C163.981 40.8037 164.727 40.0318 165.693 40.0318ZM159.498 56.4355H153.617L152.539 59.9308H144.486L151.186 40.0318H161.933L168.632 59.9308H160.579L159.501 56.4355H159.498Z" fill="white"/>
<path d="M165.684 43.2459C166.457 43.2459 167.094 42.5916 167.094 41.7823C167.094 40.973 166.457 40.3245 165.69 40.3245C164.922 40.3245 164.286 40.9788 164.286 41.7823C164.286 42.5859 164.9 43.2459 165.681 43.2459H165.684ZM165.092 40.8066H165.648C165.874 40.8066 166.041 40.8295 166.159 40.9128C166.312 41.019 166.385 41.1768 166.385 41.3863C166.385 41.7393 166.195 41.8885 165.938 41.943L166.435 42.7839H166.083L165.631 41.9861H165.374V42.7839H165.09V40.8066H165.092Z" fill="white"/>
<path d="M50.2199 40.5886H46.5519H40.3745H36.7065V45.6079H40.3745V59.7215H46.5519V45.6079H50.2199V40.5886Z" fill="white" fill-opacity="0.35"/>
<path d="M34.6714 45.3209V40.5886H30.0181H23.729V45.3209V47.5995V52.3318V54.8974V59.6296H30.0181H34.6714V54.8974H30.0181V52.3318H34.2192V47.5995H30.0181V45.3209H34.6714Z" fill="white" fill-opacity="0.35"/>
<path d="M50.7192 47.5995L52.1652 40.5886H57.8597L54.9873 47.5995H50.7192Z" fill="white" fill-opacity="0.35"/>
<path d="M16.3346 40.5886V53.5801C16.3346 54.6592 15.4832 55.4656 14.4336 55.4656C13.7497 55.4656 13.2473 55.2417 12.8174 54.7051V59.1475C13.8 59.7731 14.9584 60.1347 16.1978 60.1347C17.0715 60.1347 17.9034 59.9539 18.6626 59.6296C20.9907 58.6367 22.6265 56.2777 22.6265 53.5256V40.5886H16.3374H16.3346Z" fill="white" fill-opacity="0.35"/>
<path d="M57.4971 53.078V58.2407C57.4971 58.2407 59.1496 59.7244 63.2363 59.7244C67.3229 59.7244 70.2846 57.0239 70.2846 53.0464C70.2846 49.0689 64.0765 47.4733 64.0765 45.2865C64.0765 43.0997 69.3802 46.024 69.3802 46.024V41.0507C69.3802 41.0507 68.1938 39.8655 64.11 39.8655C60.0261 39.8655 57.4971 42.2072 57.4971 45.8633C57.4971 49.5194 63.5489 51.6029 63.5489 53.9446C63.5489 56.2864 57.4971 53.078 57.4971 53.078Z" fill="white" fill-opacity="0.35"/>
<path d="M46.5547 47.5994H40.3745V52.9888H46.5547V47.5994Z" fill="white"/>
<path d="M34.2192 52.3316V47.5994H30.0181H23.729V52.3316V52.9888H30.0181V52.3316H34.2192Z" fill="white"/>
<path d="M22.6236 47.5994H16.3345V52.9888H22.6236V47.5994Z" fill="white"/>
<path d="M65.9687 47.5994H57.9629C59.1465 49.7976 62.2394 51.3932 63.2303 52.9888H70.2787C70.2424 50.5036 67.7804 48.9539 65.9687 47.5994Z" fill="white"/>
</g>
<defs>
<clipPath id="clip0_2416_6577">
<rect width="159" height="24" fill="white" transform="translate(11 38)"/>
</clipPath>
</defs>
</svg>
