<svg width="16" height="16" viewBox="0 0 16 16" fill="none" xmlns="http://www.w3.org/2000/svg">
<path d="M4.125 15H1.21875V5.65625H4.125V15ZM2.6875 4.375C2.20833 4.35417 1.8125 4.1875 1.5 3.875C1.1875 3.5625 1.02083 3.16667 1 2.6875C1.04167 2.02083 1.32291 1.53125 1.84375 1.21875C2.36459 0.927083 2.92708 0.927083 3.53125 1.21875C4.07292 1.55209 4.35417 2.04166 4.375 2.6875C4.35417 3.16667 4.1875 3.5625 3.875 3.875C3.5625 4.1875 3.16667 4.35417 2.6875 4.375ZM15 15H12.0938V10.4375C12.1354 9.875 12.0729 9.33334 11.9062 8.8125C11.7396 8.29167 11.3021 8.01042 10.5938 7.96875C9.86458 7.98958 9.38542 8.23958 9.15625 8.71875C8.92708 9.19792 8.82292 9.75 8.84375 10.375V15H5.9375V5.65625H8.75V6.9375H8.78125C8.96875 6.54167 9.29167 6.19792 9.75 5.90625C10.2292 5.59375 10.8229 5.42708 11.5312 5.40625C12.9479 5.44792 13.8958 5.875 14.375 6.6875C14.8333 7.52084 15.0417 8.58333 15 9.875V15Z" fill="#242021"/>
</svg>
