<svg width="78" height="25" viewBox="0 0 78 25" fill="none" xmlns="http://www.w3.org/2000/svg">
<g clip-path="url(#clip0_1378_16969)">
<path d="M0.496827 18.5205C-0.417726 19.003 0.0307453 20.5323 1.03687 20.8589L13.8171 24.9918C13.8535 25.0032 13.8923 25.0021 13.9287 24.9884L27.3852 19.6072C27.5213 19.5526 27.5143 19.3637 27.3746 19.3182L15.159 15.3639C14.0613 15.01 13.6046 13.4943 14.9254 12.8025L26.9883 6.47908C27.9029 5.99661 27.4544 4.46725 26.4483 4.14067L13.6669 0.00775851C13.6305 -0.00362064 13.5917 -0.00248272 13.5553 0.0111723L0.100012 5.39237C-0.0361732 5.44699 -0.0291292 5.63589 0.110578 5.6814L12.3261 9.63566C13.4238 9.98955 13.8805 11.5053 12.5598 12.1971L0.496827 18.5205Z" fill="white"/>
<path d="M34.833 15.9214L40.6831 8.95509H34.995V7.51562H42.6531V9.08253L36.891 16.0204H43.0205V17.4883H34.833V15.9214Z" fill="white"/>
<path d="M44.1216 10.3633H45.8556V17.4866H44.1216V10.3633Z" fill="white"/>
<path d="M47.2517 10.3643H48.9716L48.9422 11.946H49.0303C49.2064 11.2189 50.0446 10.1504 51.5732 10.1504C53.4692 10.1504 54.851 11.6604 54.851 13.8828C54.851 16.1051 53.5432 17.7005 51.6319 17.7005C50.0153 17.7005 49.2651 16.6035 49.0444 15.9344H48.9704V20.0514H47.2505V10.3632L47.2517 10.3643ZM50.985 16.2906C52.1461 16.2906 53.0724 15.4929 53.0724 13.9112C53.0724 12.3295 52.1614 11.5466 50.985 11.5466C49.8087 11.5466 48.927 12.3443 48.927 13.9112C48.927 15.4781 49.8087 16.2906 50.985 16.2906Z" fill="white"/>
<path d="M55.938 15.5064V7.51367H57.6426V15.2208C57.6426 15.7761 57.8634 16.0901 58.4515 16.0901H58.9223V17.4864H57.996C56.6436 17.4864 55.938 16.8309 55.938 15.5064Z" fill="white"/>
<path d="M59.7163 7.51562H61.4503V9.19633H59.7163V7.51562ZM59.7163 10.365H61.4503V17.4883H59.7163V10.365Z" fill="white"/>
<path d="M62.8613 10.3651H64.5813L64.5519 12.1892H64.6259C64.8313 11.0923 65.8163 10.1523 67.0948 10.1523C68.8582 10.1523 69.6377 11.2208 69.6377 13.1724V17.4885H67.9037V13.3852C67.9037 12.1744 67.3449 11.5326 66.3458 11.5326C65.2434 11.5326 64.5824 12.6296 64.5824 13.755V17.4873H62.8625V10.364L62.8613 10.3651Z" fill="white"/>
<path d="M70.5767 13.926C70.5767 11.6035 72.1205 10.1504 74.3394 10.1504C76.5582 10.1504 77.9988 11.3896 77.9988 13.7269C77.9988 13.9829 77.9847 14.1684 77.9553 14.3106H72.2379C72.2966 15.692 73.1935 16.4044 74.3687 16.4044C75.2657 16.4044 75.9712 16.005 76.206 15.1652H77.8966C77.6172 16.8459 76.1626 17.7005 74.2807 17.7005C72.252 17.7005 70.5767 16.4044 70.5767 13.9249V13.926ZM76.2506 13.299C76.2506 12.1588 75.4864 11.3759 74.2959 11.3759C73.1055 11.3759 72.3553 12.1736 72.2825 13.299H76.2506Z" fill="white"/>
<path d="M45.8556 7.51562H44.1216V9.19633H45.8556V7.51562Z" fill="white"/>
</g>
<defs>
<clipPath id="clip0_1378_16969">
<rect width="78" height="25" fill="white"/>
</clipPath>
</defs>
</svg>
