<svg width="180" height="100" viewBox="0 0 180 100" fill="none" xmlns="http://www.w3.org/2000/svg">
<g clip-path="url(#clip0_420_2520)">
<mask id="mask0_420_2520" style="mask-type:luminance" maskUnits="userSpaceOnUse" x="26" y="17" width="127" height="66">
<path d="M152.909 17H26V82.7904H152.909V17Z" fill="white"/>
</mask>
<g mask="url(#mask0_420_2520)">
<path d="M57.0581 41.7516C57.3101 41.3385 57.4744 40.8776 57.5402 40.3982C57.6183 39.4951 57.6808 38.5921 57.75 37.6891C59.0111 36.6411 59.2611 35.272 59.0022 33.7402C58.9997 33.712 58.9997 33.6837 59.0022 33.6555C59.0267 32.8438 58.9352 30.9798 58.9419 30.5784C58.9557 29.7262 58.7587 28.8836 58.3683 28.1257C58.2203 27.7357 58.0116 27.3715 57.75 27.0466C57.1675 26.333 56.384 25.8559 55.6542 25.3207C55.0665 24.9369 54.54 24.4672 54.0918 23.9272C53.5427 23.1936 53.6141 22.7164 54.3529 22.1568C54.7237 21.9157 55.1176 21.7125 55.5292 21.5503C55.9912 21.3273 56.5247 21.2024 56.8996 20.7966C56.9242 20.7691 56.9418 20.7363 56.9516 20.7008C56.9615 20.6652 56.963 20.628 56.9561 20.5918C56.9492 20.5556 56.934 20.5215 56.9119 20.4921C56.8898 20.4626 56.861 20.4387 56.8282 20.422C56.4287 20.2258 55.8015 20.7543 55.652 20.5313C55.5448 20.373 55.8305 20.0853 55.9689 19.9114C56.7912 18.8531 57.8654 18.0168 59.0937 17.4788C59.0089 17.3138 58.9106 17.345 58.8236 17.3517C57.7214 17.4253 56.6769 17.8694 55.8595 18.6115C54.8239 19.5034 54.0739 20.6383 53.2459 21.6952C52.6276 22.4778 52.7013 23.7644 52.4982 24.5938C52.391 25.0398 50.6501 23.9026 49.3734 23.479C46.4428 22.4934 43.7153 23.2226 41.6395 26.0967C40.3896 27.8426 40.7133 29.0422 42.7399 29.8337C44.2599 30.4335 45.8647 30.5026 47.4583 30.4625C47.9166 30.3981 48.3694 30.2997 48.8131 30.1682C49.5408 29.9831 50.9402 28.7434 51.4714 28.3398C52.2906 27.711 51.8308 31.0422 52.7035 32.1749C52.8617 32.3767 52.9937 32.5977 53.0963 32.8327C53.2124 33.1047 53.353 33.4303 53.4334 33.6042C53.9467 34.7012 54.4802 35.7202 54.6185 37.0001C54.7882 38.5609 55.5113 39.9166 56.1541 41.299C56.2635 41.5331 56.3773 41.8051 56.6162 41.9122C56.6965 41.9454 56.7865 41.9474 56.8684 41.9177C56.9501 41.8881 57.0179 41.8288 57.0581 41.7516ZM45.4339 24.8191C45.6 24.707 45.787 24.6295 45.9837 24.5912C46.1804 24.5529 46.3828 24.5546 46.5789 24.5961C47.5342 24.8191 49.8153 25.5504 50.9112 25.9049C51.2578 26.0359 51.5395 26.2966 51.6969 26.6318C50.6255 27.0778 50.1925 28.3465 49.0006 28.6386C48.6212 28.7278 45.9852 29.5795 43.9251 28.7456C43.3649 28.5226 42.7689 28.4981 42.5859 27.7601C42.4252 27.0911 42.6841 26.556 43.2957 26.0945C43.9697 25.5883 44.7353 25.2672 45.4339 24.8191Z" fill="white"/>
<path d="M77.5388 21.4157C77.3049 21.0427 77.0237 20.7017 76.7018 20.4011C74.5011 18.4858 70.6889 18.6374 68.631 20.72C68.3698 21.0081 68.0464 21.2328 67.6851 21.377C67.3237 21.5211 66.9342 21.5809 66.5463 21.5517C66.2896 21.5271 66.0017 20.1001 65.3723 19.6898C64.2429 18.9563 63.051 18.3386 62.06 17.3754C61.8707 17.1779 61.6212 17.0487 61.3505 17.0084C61.0797 16.968 60.8034 17.0187 60.5646 17.1524C61.4172 17.8659 62.1805 18.5772 63.0421 19.1592C63.3233 19.3532 64.6781 20.6063 65.2629 21.1949C65.7406 21.6788 65.7316 21.9575 65.2384 22.3432C63.8724 23.409 63.5644 24.8807 63.6001 26.4905C63.4662 28.0915 63.763 29.6434 64.1313 31.1886C64.2652 32.5264 64.4862 33.8375 65.3299 34.9457C65.5354 35.214 65.8283 35.4025 66.1579 35.4786C66.6329 35.596 67.053 35.8732 67.3476 36.2634C67.3909 36.3251 67.4505 36.3736 67.5197 36.4035C67.5889 36.4334 67.665 36.4437 67.7395 36.433C67.8143 36.4224 67.8844 36.3914 67.9424 36.3433C68.0007 36.2953 68.0442 36.2321 68.0685 36.1609C68.1672 35.8808 68.2294 35.5894 68.2538 35.2935C68.3274 34.2857 68.1355 33.309 68.0998 32.3168C68.064 31.3246 68.1198 30.368 68.5662 29.4561C69.1287 28.3055 67.2895 26.0334 68.8363 26.3344C70.0818 26.5819 71.7223 26.6622 72.8539 26.0758C73.7779 25.5957 74.6968 25.1066 75.6104 24.6086C76.3092 24.2523 76.9268 23.7559 77.425 23.1504C77.8602 22.6019 77.9651 22.0444 77.5388 21.4157ZM76.8335 23.1727C75.4637 24.1338 73.9714 24.9077 72.3963 25.4738C71.7399 25.6825 71.0324 25.6645 70.3875 25.4225C69.4479 25.1014 68.4636 24.9163 67.5552 24.4994C68.7738 23.855 69.2559 22.4547 70.0103 21.3778C70.4366 20.5171 72.9744 20.3588 73.7177 20.7958C74.7779 21.3889 76.0188 21.4647 77.0656 22.0489C77.121 22.0798 77.1683 22.1234 77.2038 22.1761C77.2391 22.2289 77.2614 22.2892 77.2688 22.3521C77.2824 22.5162 77.2487 22.6807 77.1714 22.8261C77.0942 22.9715 76.977 23.0918 76.8335 23.1727Z" fill="white"/>
<path d="M51.3867 43.3119C51.5607 43.8092 51.4737 44.458 51.5094 45.0311C51.5177 45.1327 51.5581 45.2293 51.625 45.3062C51.692 45.3834 51.7817 45.4371 51.8813 45.4598C51.9808 45.4824 52.085 45.4728 52.1788 45.4322C52.2725 45.3916 52.3506 45.322 52.4022 45.234C52.7325 44.6431 53.1254 44.1191 53.4222 43.4881C53.7191 42.8571 53.7793 41.9786 53.7838 41.2717C53.7972 39.3274 52.949 35.4744 52.2683 35.9204C49.3935 37.7711 47.1727 38.799 43.9653 38.7878C42.8962 38.7878 41.8271 38.7165 40.7602 38.6518C40.383 38.6273 40.3138 39.2025 40.6865 39.2404C40.7076 39.2571 40.73 39.272 40.7535 39.285C42.5145 40.226 44.5479 40.4289 46.4897 40.6697C47.6574 40.7805 48.8116 41.0046 49.9359 41.3386C50.2383 41.4385 50.5126 41.6091 50.7363 41.8359C50.9597 42.0626 51.1262 42.3393 51.2215 42.643C51.2907 42.8622 51.3458 43.0856 51.3867 43.3119Z" fill="white"/>
<path d="M67.3186 40.0002C67.0507 39.1084 66.9257 37.9021 66.7382 36.95C66.7228 36.8787 66.6929 36.8114 66.6501 36.7523C66.6074 36.6932 66.5528 36.6437 66.4898 36.6068C66.4269 36.5699 66.357 36.5464 66.2845 36.538C66.2119 36.5295 66.1385 36.5362 66.0686 36.5576C64.7864 36.7443 63.5153 37.0004 62.2609 37.3246C61.4261 37.5298 61.1002 37.3714 60.3481 37.5231C59.9017 37.6167 59.5178 37.9891 59.0781 38.1184C58.6384 38.2477 58.6718 38.5889 58.6942 38.8988C58.7232 39.3135 59.1406 40.4127 59.1272 41.2868C59.1258 42.0137 59.3564 42.7223 59.7856 43.3092C60.19 43.8891 60.798 44.2958 61.4886 44.4485C61.7768 44.5197 62.0752 44.54 62.3702 44.5087C62.5934 44.4731 62.5131 44.3281 62.3702 44.2612C61.0578 43.6146 60.8079 42.8766 61.0802 42.9769C62.2229 43.3894 63.2072 41.9758 64.5085 42.366C65.5888 42.6915 66.37 43.0237 67.0284 42.0181C67.2268 41.7258 67.3561 41.3923 67.4063 41.0426C67.4567 40.693 67.4266 40.3367 67.3186 40.0002ZM62.0176 40.8408C61.993 40.9947 61.973 41.1552 61.7944 41.2043C61.7185 41.182 61.6984 41.1441 61.6984 41.0995C61.6986 41.0368 61.6761 40.9762 61.635 40.9287C61.5942 40.8812 61.5373 40.85 61.4752 40.8408C60.8056 40.7583 60.3749 40.2856 60.2275 39.6212C60.1026 39.066 60.636 38.9033 61.002 39.0281C61.5065 39.2021 61.8256 39.8508 61.9953 40.3793C62.0384 40.5293 62.0459 40.6874 62.0176 40.8408ZM65.6937 39.4785C65.5702 39.6669 65.4004 39.8205 65.2004 39.9244C65.1334 39.9534 65.0821 40.0092 65.1067 40.0783L65.1401 40.1697C65.1759 40.2789 65.0285 40.415 64.9437 40.3124C64.7991 40.1565 64.6935 39.9686 64.6362 39.7637C64.5786 39.559 64.5708 39.3436 64.6134 39.1352C64.6312 38.9479 64.7674 38.2433 65.3209 37.9333C65.7093 37.7104 65.9437 38.3258 65.9303 38.736C65.9385 39.0033 65.855 39.2652 65.6937 39.4785Z" fill="white"/>
<path d="M46.8646 58.4954H45.5544C45.5305 58.4954 45.5073 58.4867 45.4895 58.4704C45.4718 58.4544 45.4607 58.4323 45.4585 58.4084L44.5009 45.9465C44.5001 45.9327 44.502 45.9188 44.5066 45.9059C44.5112 45.8927 44.5184 45.8809 44.5277 45.8707C44.5369 45.8602 44.5482 45.8517 44.5609 45.8459C44.5736 45.8403 44.5874 45.8372 44.6014 45.8372H46.0678C46.1517 45.8366 46.2319 45.8031 46.2913 45.7438C46.3506 45.6845 46.3841 45.6044 46.3847 45.5206V43.9598C46.3847 43.9183 46.3765 43.8771 46.3606 43.8387C46.3447 43.8001 46.3213 43.7654 46.2919 43.7359C46.2625 43.7065 46.2275 43.6831 46.1891 43.6672C46.1506 43.6514 46.1094 43.6432 46.0678 43.6432H41.0347C40.966 43.6441 40.8994 43.6659 40.8435 43.7058C40.7877 43.7457 40.7453 43.8017 40.7222 43.8661L36.5908 54.6625L32.4594 43.8595C32.4365 43.7948 32.3942 43.7386 32.3383 43.6987C32.2824 43.6588 32.2156 43.6371 32.1469 43.6365H27.116C27.0742 43.6363 27.0327 43.6441 26.994 43.6599C26.9553 43.6757 26.9201 43.6989 26.8904 43.7283C26.8608 43.7578 26.8372 43.7928 26.8212 43.8314C26.8051 43.8699 26.7968 43.9114 26.7968 43.9531V45.5139C26.7962 45.5561 26.804 45.5982 26.8198 45.6372C26.8356 45.6765 26.859 45.7121 26.8887 45.7422C26.9184 45.7723 26.9538 45.7962 26.9928 45.8125C27.0318 45.8288 27.0737 45.8372 27.116 45.8372H28.5802C28.5942 45.8368 28.6081 45.8397 28.6209 45.8455C28.6337 45.8513 28.6449 45.8597 28.6538 45.8707C28.6637 45.8805 28.6712 45.8925 28.6758 45.9055C28.6804 45.9186 28.6821 45.9327 28.6806 45.9465L27.7231 58.4084C27.7209 58.4323 27.7098 58.4544 27.692 58.4704C27.6742 58.4867 27.6511 58.4954 27.6271 58.4954H26.3169C26.2327 58.4961 26.1521 58.5297 26.0927 58.5895C26.0333 58.6492 26 58.73 26 58.8143V60.3751C26.0006 60.4589 26.0342 60.5389 26.0935 60.5983C26.1528 60.6576 26.2331 60.691 26.3169 60.6917H31.7741C31.8584 60.6917 31.9393 60.6585 31.999 60.5991C32.0588 60.5398 32.0927 60.4591 32.0933 60.3751V58.8143C32.0933 58.7297 32.0597 58.6486 31.9998 58.5888C31.94 58.5291 31.8588 58.4954 31.7741 58.4954H30.3077C30.2834 58.497 30.2593 58.4889 30.2408 58.4731C30.232 58.4635 30.2252 58.4524 30.221 58.4401C30.2168 58.4276 30.2151 58.4147 30.2162 58.4017L31.1336 47.7704L35.1511 58.2501C35.174 58.3148 35.2163 58.371 35.2722 58.4109C35.3281 58.4508 35.3949 58.4724 35.4636 58.4731H37.6956C37.764 58.4722 37.8305 58.4506 37.886 58.4107C37.9415 58.3708 37.9834 58.3146 38.0059 58.2501L42.0234 47.7704L42.9631 58.3928C42.9652 58.4058 42.964 58.4191 42.9597 58.4316C42.9555 58.4441 42.9482 58.4553 42.9385 58.4642C42.9299 58.474 42.9193 58.4818 42.9073 58.4874C42.8954 58.4927 42.8825 58.4954 42.8693 58.4954H41.4007C41.3164 58.4961 41.2358 58.5297 41.1765 58.5895C41.1171 58.6492 41.0838 58.73 41.0838 58.8143V60.3751C41.0849 60.4585 41.1188 60.5381 41.178 60.5969C41.2373 60.6556 41.3172 60.6888 41.4007 60.6895H46.8646C46.9487 60.6895 47.0293 60.656 47.0887 60.5967C47.1482 60.5374 47.1815 60.4569 47.1815 60.3728V58.812C47.1815 58.728 47.1482 58.6475 47.0887 58.5882C47.0293 58.5288 46.9487 58.4954 46.8646 58.4954Z" fill="white"/>
<path d="M60.9998 50.1636H62.339C62.3642 50.1641 62.3883 50.1745 62.406 50.1926C62.4147 50.2013 62.4214 50.2118 62.426 50.2234C62.4305 50.2347 62.433 50.247 62.4327 50.2595L62.3881 58.4025C62.387 58.4272 62.3765 58.4508 62.3586 58.4682C62.3408 58.4856 62.3169 58.4954 62.2921 58.4961H61.2877C61.2034 58.4966 61.1228 58.5304 61.0634 58.5902C61.004 58.65 60.9708 58.7307 60.9708 58.815V60.3758C60.9715 60.4596 61.0049 60.5397 61.0643 60.599C61.1235 60.6583 61.2038 60.6917 61.2877 60.6924H66.6735C66.7574 60.6924 66.8382 60.6589 66.8976 60.5996C66.957 60.5403 66.9905 60.4596 66.9905 60.3758V58.815C66.9907 58.773 66.9826 58.7318 66.967 58.693C66.9512 58.6544 66.928 58.6192 66.8985 58.5895C66.869 58.5599 66.834 58.5365 66.7954 58.5204C66.7568 58.5044 66.7152 58.4961 66.6735 58.4961H65.4057C65.3932 58.4963 65.381 58.4939 65.3696 58.4894C65.358 58.4847 65.3475 58.478 65.3388 58.4693C65.3216 58.4502 65.3122 58.4256 65.312 58.4002L65.4035 53.8516C65.4504 51.6464 66.7293 50.1636 68.5886 50.1636C70.0996 50.1636 71.0013 51.2629 71.0013 53.1046V60.3557C71.0013 60.4444 71.0366 60.5294 71.0993 60.5921C71.1623 60.6549 71.2473 60.6902 71.3361 60.6902H75.1305C75.2144 60.6895 75.2946 60.656 75.3539 60.5967C75.4133 60.5374 75.4468 60.4574 75.4474 60.3735V58.8127C75.4474 58.7284 75.4142 58.6477 75.3548 58.588C75.2954 58.5282 75.2147 58.4943 75.1305 58.4939H73.9208C73.908 58.4941 73.8955 58.4919 73.8839 58.4872C73.8723 58.4825 73.8618 58.4754 73.8529 58.4662C73.8442 58.4573 73.8373 58.4466 73.8328 58.4348C73.8284 58.423 73.8264 58.4105 73.827 58.398C73.827 57.6689 73.8516 56.942 73.8672 56.2129C73.894 55.0378 73.9185 53.8204 73.9185 52.623C73.9185 49.4345 72.3338 47.6797 69.4546 47.6797C67.5172 47.6797 65.9838 48.5716 65.2138 50.1324C65.2924 49.5237 65.3372 48.9109 65.3477 48.2973C65.3484 48.2559 65.3406 48.2148 65.3249 48.1765C65.3091 48.1381 65.2857 48.1033 65.2562 48.0744C65.1971 48.015 65.1167 47.9814 65.033 47.9807H60.9998C60.9157 47.9807 60.8351 48.0139 60.7757 48.0735C60.7161 48.1328 60.6829 48.2133 60.6829 48.2973V49.8581C60.6862 49.94 60.721 50.0173 60.7802 50.0742C60.8391 50.1311 60.9179 50.1632 60.9998 50.1636Z" fill="white"/>
<path d="M96.7763 60.9775C100.76 60.9775 103.336 58.3977 103.336 54.402C103.336 51.1533 101.696 47.6816 97.0865 47.6816C93.1694 47.6816 90.433 50.5245 90.433 54.5938C90.4352 57.6797 92.1003 60.9775 96.7763 60.9775ZM96.8499 58.4958C94.3747 58.4958 93.502 56.3419 93.502 54.4979C93.502 52.4042 94.4327 50.1633 97.0464 50.1633C99.0708 50.1633 100.278 51.6416 100.278 54.1144C100.274 56.857 98.986 58.4958 96.8499 58.4958Z" fill="white"/>
<path d="M89.5581 58.4966H88.2881C88.2758 58.4968 88.2633 58.4946 88.2519 58.4901C88.2403 58.4855 88.2298 58.4785 88.2211 58.4698C88.203 58.4522 88.1925 58.4281 88.1921 58.403L88.2858 43.2007C88.2865 43.1592 88.2785 43.1182 88.2628 43.0798C88.2472 43.0415 88.2238 43.0067 88.1943 42.9777C88.1352 42.9181 88.055 42.8845 87.9711 42.884H83.5071C83.4226 42.884 83.3413 42.9177 83.2815 42.9775C83.2217 43.0372 83.188 43.1184 83.188 43.2029V44.7637C83.1886 44.8478 83.2226 44.9285 83.2822 44.9878C83.342 45.0471 83.423 45.0803 83.5071 45.0803H85.3709C85.3961 45.0808 85.4202 45.0912 85.4378 45.1093C85.4465 45.1182 85.4532 45.1285 85.4579 45.1401C85.4626 45.1514 85.4648 45.1637 85.4646 45.1762L85.4222 48.3669C85.4222 48.3794 85.4186 48.3919 85.4119 48.4024C85.4052 48.4131 85.3956 48.4216 85.3842 48.4271C85.3751 48.4336 85.3642 48.4372 85.353 48.4372C85.3418 48.4372 85.3309 48.4336 85.3218 48.4271C84.5033 47.8884 83.5455 47.5995 82.5652 47.5955C78.657 47.5955 76.2286 50.4116 76.2286 54.9536C76.2286 58.5702 78.3713 61.0006 81.5609 61.0006C83.3688 61.0006 84.7682 60.18 85.565 58.675C85.4845 59.2433 85.436 59.8157 85.42 60.3896C85.4204 60.473 85.4532 60.5529 85.5115 60.6126C85.5405 60.6427 85.5751 60.6666 85.6135 60.6831C85.6516 60.6996 85.6929 60.7083 85.7347 60.7085H89.5536C89.6375 60.7078 89.7179 60.6744 89.777 60.6151C89.8364 60.5558 89.8699 60.4757 89.8705 60.3919V58.8311C89.8725 58.7885 89.8661 58.7459 89.8516 58.7058C89.8368 58.6656 89.8143 58.629 89.7851 58.5978C89.756 58.5666 89.7208 58.5416 89.6819 58.5242C89.6429 58.5069 89.6007 58.4975 89.5581 58.4966ZM85.4713 54.1152C85.4713 56.8577 84.1924 58.4966 82.0474 58.4966C79.5722 58.4966 78.6994 56.3427 78.6994 54.4987C78.6994 52.405 79.6302 50.1641 82.2438 50.1641C84.2549 50.1641 85.4713 51.6424 85.4713 54.1152Z" fill="white"/>
<path d="M111.389 60.9775C112.528 60.9713 113.656 60.7661 114.724 60.371C114.78 60.3483 114.828 60.3102 114.864 60.2613C114.899 60.2125 114.92 60.1547 114.925 60.0945L115.038 58.2483C115.042 58.1939 115.032 58.1395 115.008 58.0902C114.985 58.041 114.949 57.9986 114.904 57.9674C114.86 57.9368 114.808 57.9179 114.754 57.9125C114.701 57.907 114.646 57.9152 114.596 57.9362C113.69 58.2967 112.724 58.4865 111.748 58.4958C110.467 58.4958 107.483 58.0722 107.483 54.1389C107.483 51.597 108.878 50.0206 111.123 50.0206C111.596 50.0206 112.068 50.0766 112.527 50.1879C112.548 50.1932 112.566 50.2055 112.579 50.2224C112.592 50.2394 112.599 50.2601 112.599 50.2815V51.7687C112.599 51.8104 112.607 51.8519 112.623 51.8907C112.639 51.9293 112.663 51.9645 112.692 51.9942C112.722 52.0238 112.757 52.0472 112.796 52.0633C112.835 52.0793 112.876 52.0876 112.918 52.0876H114.766C114.851 52.0876 114.932 52.0539 114.992 51.9942C115.052 51.9344 115.085 51.8532 115.085 51.7687V48.578C115.085 48.5153 115.067 48.4542 115.033 48.4023C114.998 48.3503 114.949 48.3098 114.891 48.2859C114.242 48.0094 113.105 47.6816 111.411 47.6816C107.189 47.6816 104.566 50.257 104.566 54.402C104.566 56.1568 105.099 57.7466 106.073 58.8793C107.269 60.2729 109.057 60.9775 111.389 60.9775Z" fill="white"/>
<path d="M117.217 50.1642H118.703C118.716 50.1645 118.728 50.1671 118.74 50.172C118.751 50.1769 118.762 50.1843 118.77 50.1932C118.788 50.2108 118.799 50.2349 118.799 50.2601L118.752 58.4031C118.752 58.4281 118.743 58.4517 118.725 58.4693C118.707 58.4869 118.683 58.4967 118.659 58.4967H117.433C117.349 58.4974 117.268 58.5313 117.209 58.5911C117.15 58.6508 117.116 58.7315 117.116 58.8156V60.3764C117.117 60.4602 117.151 60.5405 117.21 60.5996C117.269 60.6589 117.349 60.6926 117.433 60.693H123.036C123.12 60.6926 123.2 60.6589 123.259 60.5996C123.318 60.5405 123.352 60.4602 123.353 60.3764V58.8156C123.353 58.7315 123.319 58.6508 123.26 58.5911C123.201 58.5313 123.12 58.4974 123.036 58.4967H121.763C121.751 58.4972 121.739 58.4949 121.727 58.4903C121.716 58.4856 121.705 58.4789 121.696 58.47C121.688 58.4613 121.681 58.4508 121.676 58.4394C121.672 58.4278 121.669 58.4156 121.67 58.4031L121.717 48.2913C121.717 48.2068 121.683 48.1256 121.623 48.0658C121.563 48.0061 121.482 47.9724 121.397 47.9724H117.217C117.133 47.9724 117.052 48.0059 116.993 48.0652C116.933 48.1245 116.9 48.2052 116.9 48.289V49.8498C116.901 49.9332 116.935 50.0128 116.994 50.0717C117.053 50.1306 117.133 50.1638 117.217 50.1642Z" fill="white"/>
<path d="M139.258 58.4958H138.046C138.033 58.4958 138.021 58.4936 138.01 58.4891C137.998 58.4845 137.988 58.4775 137.979 58.4691C137.961 58.4501 137.951 58.4256 137.95 58.3999C137.961 57.6708 137.976 56.9395 137.992 56.2104C138.017 55.0353 138.043 53.8201 138.043 52.625C138.043 49.4364 136.459 47.6816 133.579 47.6816C131.642 47.6816 130.106 48.5735 129.339 50.1343C129.417 49.5254 129.462 48.9129 129.473 48.2993C129.473 48.2578 129.465 48.2168 129.449 48.1786C129.433 48.1403 129.41 48.1055 129.381 48.0763C129.322 48.017 129.242 47.9833 129.158 47.9827H125.116C125.032 47.9827 124.951 48.0159 124.892 48.0752C124.832 48.1347 124.799 48.2152 124.799 48.2993V49.8601C124.799 49.9437 124.833 50.024 124.892 50.0833C124.951 50.1424 125.032 50.176 125.116 50.1767H126.455C126.481 50.1767 126.506 50.1872 126.524 50.2057C126.533 50.2144 126.54 50.2249 126.544 50.2365C126.549 50.2478 126.551 50.2601 126.551 50.2726L126.504 58.4156C126.504 58.4403 126.494 58.4642 126.477 58.4818C126.459 58.4992 126.435 58.5092 126.41 58.5092H125.401C125.317 58.5097 125.237 58.5435 125.177 58.6033C125.118 58.6631 125.085 58.7438 125.085 58.8281V60.3889C125.085 60.4725 125.119 60.5528 125.178 60.6121C125.237 60.6712 125.318 60.7048 125.401 60.7055H130.787C130.871 60.7048 130.951 60.6712 131.011 60.6121C131.07 60.5528 131.104 60.4725 131.104 60.3889V58.8281C131.104 58.7438 131.071 58.6631 131.012 58.6033C130.952 58.5435 130.871 58.5097 130.787 58.5092H129.519C129.507 58.5092 129.495 58.507 129.483 58.5025C129.472 58.4978 129.461 58.4909 129.453 58.4825C129.435 58.4633 129.426 58.4387 129.426 58.4133L129.517 53.8647C129.562 51.6595 130.843 50.1767 132.702 50.1767C134.213 50.1767 135.115 51.276 135.115 53.1177V60.3688C135.115 60.4573 135.15 60.5425 135.213 60.6052C135.276 60.668 135.361 60.7033 135.45 60.7033H139.255C139.339 60.7026 139.419 60.6689 139.479 60.6098C139.538 60.5505 139.572 60.4703 139.572 60.3866V58.8258C139.574 58.7832 139.567 58.7411 139.552 58.7014C139.537 58.6617 139.514 58.6254 139.484 58.5946C139.455 58.5638 139.42 58.5393 139.381 58.5224C139.342 58.5054 139.3 58.4963 139.258 58.4958Z" fill="white"/>
<path d="M146.663 47.6816C142.746 47.6816 140.01 50.5245 140.01 54.5938C140.01 57.6797 141.675 60.9775 146.351 60.9775C150.335 60.9775 152.909 58.3977 152.909 54.402C152.909 51.1533 151.268 47.6816 146.663 47.6816ZM149.848 54.1144C149.848 56.857 148.567 58.4958 146.422 58.4958C143.949 58.4958 143.074 56.3419 143.074 54.4979C143.074 52.4042 144.007 50.1633 146.621 50.1633C148.639 50.1633 149.848 51.6416 149.848 54.1144Z" fill="white"/>
<path d="M64.7987 65.2686H53.3709C53.287 65.269 53.2066 65.3027 53.1475 65.3618C53.0881 65.4211 53.0546 65.5013 53.054 65.5852V67.146C53.054 67.23 53.0872 67.3108 53.1466 67.3705C53.206 67.4303 53.2865 67.4642 53.3709 67.4648H54.9065C54.9188 67.4644 54.9313 67.4666 54.9427 67.4713C54.9543 67.4758 54.9648 67.4827 54.9735 67.4916C54.9822 67.5003 54.9891 67.5108 54.9938 67.5221C54.9982 67.5337 55.0005 67.546 55.0002 67.5585L54.9065 80.0271C54.9067 80.0396 54.9045 80.0519 54.9 80.0635C54.8953 80.0751 54.8886 80.0858 54.8799 80.0947C54.871 80.1036 54.8607 80.1107 54.8491 80.1157C54.8375 80.1203 54.8253 80.123 54.8128 80.123H53.5405C53.4582 80.1252 53.38 80.1591 53.322 80.2178C53.2642 80.2764 53.2314 80.3551 53.2303 80.4374V81.9982C53.2303 82.0399 53.2385 82.0812 53.2546 82.1197C53.2707 82.1583 53.2941 82.1933 53.3238 82.2228C53.3535 82.2522 53.3888 82.2756 53.4274 82.2912C53.4662 82.307 53.5077 82.3151 53.5495 82.3148H59.6071C59.6488 82.3151 59.6901 82.307 59.7287 82.2912C59.7673 82.2754 59.8024 82.2522 59.8318 82.2228C59.8613 82.1931 59.8847 82.1581 59.9006 82.1197C59.9162 82.0812 59.9242 82.0397 59.924 81.9982V80.4374C59.924 80.3533 59.8905 80.2729 59.8312 80.2133C59.7718 80.154 59.6912 80.1208 59.6071 80.1208H57.9532C57.9407 80.1206 57.9282 80.1179 57.9168 80.113C57.9052 80.1081 57.8949 80.1007 57.8862 80.0918C57.8681 80.0742 57.8576 80.0501 57.8572 80.0249L57.9018 74.8609C57.9029 74.8359 57.9134 74.8125 57.9313 74.7951C57.9491 74.7777 57.9728 74.7676 57.9978 74.7672H62.8278C62.912 74.7672 62.993 74.7338 63.0528 74.6744C63.1124 74.6151 63.1463 74.5346 63.147 74.4506V72.7448C63.1463 72.6606 63.1124 72.5801 63.0528 72.5207C62.993 72.4614 62.912 72.4282 62.8278 72.4282H57.9911C57.9659 72.4275 57.9418 72.4173 57.9241 72.3992C57.9154 72.3903 57.9087 72.3798 57.9041 72.3685C57.8994 72.3569 57.8971 72.3446 57.8974 72.3323L57.942 67.554C57.942 67.5291 57.9518 67.5052 57.9695 67.4878C57.9871 67.4702 58.011 67.4604 58.0357 67.4604H62.5198C62.5446 67.4602 62.5682 67.4697 62.5861 67.4867C62.604 67.5039 62.6147 67.527 62.6158 67.5518L62.7363 69.0502C62.7414 69.1307 62.7769 69.2065 62.8359 69.262C62.8946 69.3173 62.9725 69.3485 63.0533 69.349H64.8857C64.9281 69.349 64.9701 69.3405 65.0091 69.324C65.0482 69.3075 65.0835 69.2834 65.1129 69.2531C65.1426 69.2225 65.1658 69.1866 65.1812 69.1472C65.1966 69.1077 65.2038 69.0656 65.2027 69.0234L65.1156 65.5763C65.1127 65.494 65.0781 65.4159 65.019 65.3586C64.96 65.3013 64.881 65.269 64.7987 65.2686Z" fill="white"/>
<path d="M77.3892 80.1196H76.1214C76.1089 80.1196 76.0964 80.1169 76.0851 80.112C76.0735 80.1069 76.0632 80.0997 76.0545 80.0906C76.0449 80.0819 76.0373 80.0712 76.0324 80.0594C76.0275 80.0473 76.025 80.0344 76.0255 80.0215C76.0366 79.2856 76.0523 78.5498 76.0679 77.8163C76.0924 76.6323 76.1192 75.4104 76.1192 74.1996C76.1192 70.8149 74.5791 69.3054 71.124 69.3054C69.434 69.2833 67.762 69.6541 66.2404 70.389C66.1858 70.4149 66.1396 70.4555 66.1072 70.5065C66.0748 70.5574 66.0576 70.6165 66.0574 70.6767V73.4393C66.0574 73.524 66.0911 73.605 66.1509 73.6649C66.2108 73.7247 66.292 73.7581 66.3766 73.7581H68.3698C68.4541 73.7577 68.5347 73.7238 68.5941 73.6641C68.6534 73.6043 68.6867 73.5236 68.6867 73.4393V71.961C68.6867 71.9418 68.6925 71.9231 68.7032 71.9072C68.7139 71.8914 68.7291 71.8789 68.747 71.8718C69.4183 71.6345 70.1241 71.5079 70.8361 71.4972C73.1752 71.4972 73.4899 72.7659 73.4899 74.0056V74.7504C73.4899 74.7747 73.4808 74.7981 73.4643 74.8159C73.4478 74.8338 73.425 74.8447 73.4007 74.8463L71.0236 74.9778C69.6643 75.0425 65.5284 75.2365 65.5284 78.911C65.5284 80.6146 66.6043 82.6035 69.6331 82.6035C72.0213 82.6035 73.077 81.4039 73.635 80.269C73.5656 80.8418 73.5261 81.4179 73.5167 81.9948C73.516 82.036 73.5236 82.077 73.539 82.1152C73.5544 82.1535 73.5772 82.1883 73.606 82.2177C73.6658 82.2764 73.7455 82.3098 73.8292 82.3114H77.3825C77.4243 82.3118 77.4658 82.3038 77.5046 82.288C77.5432 82.2721 77.5785 82.249 77.6082 82.2195C77.6379 82.1901 77.6613 82.1551 77.6774 82.1165C77.6934 82.0779 77.7017 82.0367 77.7017 81.9948V80.434C77.7006 80.3515 77.6673 80.2725 77.6091 80.2139C77.5508 80.155 77.472 80.1213 77.3892 80.1196ZM73.4431 76.9065V77.2031C73.4431 78.7238 72.3739 80.2623 70.3317 80.2623C69.2023 80.2623 68.4456 79.6312 68.4456 78.7015C68.4456 77.0113 70.6642 76.8486 73.356 76.8196C73.3812 76.8202 73.4053 76.8305 73.423 76.8485C73.4359 76.865 73.4431 76.8856 73.4431 76.9065Z" fill="white"/>
<path d="M88.4576 69.5183C88.0086 69.4073 87.5477 69.352 87.085 69.3533C85.4757 69.3533 84.2079 70.4191 83.5741 72.2519C83.6299 71.4269 83.6366 70.6265 83.6366 69.9107C83.6359 69.8264 83.6022 69.746 83.5424 69.6866C83.4825 69.6273 83.4017 69.5941 83.3174 69.5941H79.2797C79.1958 69.5948 79.1157 69.6282 79.0563 69.6875C78.9969 69.7468 78.9634 69.8269 78.9628 69.9107V71.4715C78.9628 71.5558 78.996 71.6365 79.0554 71.6963C79.1148 71.7561 79.1956 71.7897 79.2797 71.7904H80.7684C80.7809 71.7902 80.7932 71.7924 80.8046 71.7969C80.8162 71.8015 80.8267 71.8085 80.8354 71.8171C80.8441 71.8258 80.851 71.8363 80.8557 71.8479C80.8602 71.8593 80.8624 71.8716 80.8622 71.884L80.8153 80.027C80.8155 80.0395 80.8133 80.052 80.8088 80.0636C80.8042 80.0752 80.7975 80.0857 80.7888 80.0946C80.7798 80.1037 80.7696 80.1106 80.758 80.1155C80.7463 80.1204 80.7341 80.1229 80.7216 80.1229H79.6167C79.5328 80.1236 79.4527 80.157 79.3933 80.2163C79.3339 80.2756 79.3005 80.3557 79.2998 80.4395V82.0003C79.2998 82.0844 79.3333 82.1649 79.3927 82.2242C79.452 82.2835 79.5326 82.3169 79.6167 82.3169H85.2436C85.2853 82.3169 85.3264 82.3087 85.3648 82.2929C85.4034 82.277 85.4382 82.2536 85.4677 82.2242C85.4971 82.1948 85.5206 82.16 85.5364 82.1214C85.5523 82.083 85.5605 82.0418 85.5605 82.0003V80.4395C85.5599 80.3557 85.5264 80.2756 85.467 80.2163C85.4076 80.157 85.3275 80.1236 85.2436 80.1229H83.8307C83.8048 80.1227 83.7798 80.1124 83.7615 80.0939C83.7528 80.085 83.7461 80.0745 83.7415 80.0631C83.7368 80.0518 83.7345 80.0393 83.7348 80.027L83.7816 76.3413C83.8017 74.3345 84.6744 71.9821 87.085 71.9821C87.4117 71.9748 87.7378 72.0138 88.0536 72.0981C88.0976 72.1099 88.1436 72.1121 88.1887 72.1048C88.2335 72.0974 88.2764 72.0805 88.3143 72.0551C88.3521 72.0296 88.3842 71.9966 88.4081 71.9578C88.432 71.919 88.4474 71.8758 88.4532 71.8305L88.6898 69.8661C88.7005 69.7899 88.6828 69.7123 88.64 69.6481C88.5971 69.5841 88.5322 69.5377 88.4576 69.5183Z" fill="white"/>
<path d="M112.688 80.1206H111.472C111.459 80.1204 111.447 80.1175 111.435 80.1123C111.424 80.1074 111.413 80.1001 111.405 80.0909C111.396 80.0818 111.389 80.0711 111.384 80.0593C111.38 80.0477 111.378 80.035 111.378 80.0225C111.438 78.2922 111.467 76.4036 111.467 74.2475C111.467 71.0612 109.905 69.3064 107.05 69.3064C104.968 69.3064 103.425 70.254 102.767 71.9174C102.372 70.2518 100.97 69.3064 98.8699 69.3064C97.0218 69.3064 95.4862 70.2184 94.7631 71.69C94.8401 71.0984 94.8825 70.5026 94.8903 69.9062C94.8914 69.8649 94.884 69.8239 94.8686 69.7856C94.8532 69.7472 94.8303 69.7124 94.801 69.6832C94.772 69.6533 94.7374 69.6293 94.699 69.613C94.6606 69.5965 94.6196 69.5878 94.5778 69.5873H90.5379C90.4536 69.5873 90.3728 69.6206 90.3129 69.6799C90.2531 69.7392 90.2194 69.8197 90.2188 69.904V71.4648C90.2188 71.5493 90.2525 71.6304 90.3123 71.6902C90.3721 71.75 90.4533 71.7836 90.5379 71.7836H91.8771C91.8894 71.7834 91.9019 71.7856 91.9133 71.7901C91.9249 71.7948 91.9354 71.8017 91.9441 71.8104C91.9622 71.828 91.9726 71.8521 91.9731 71.8773L91.9262 80.0202C91.9264 80.0327 91.9242 80.0452 91.9197 80.0568C91.9151 80.0684 91.9084 80.0789 91.8997 80.0878C91.8907 80.0967 91.8805 80.1039 91.8689 80.1088C91.8573 80.1137 91.845 80.1161 91.8325 80.1161H90.8236C90.7814 80.1159 90.7397 80.1239 90.7006 80.14C90.6616 80.156 90.6261 80.1797 90.5964 80.2095C90.5667 80.2394 90.5433 80.2751 90.5274 80.3141C90.5116 80.3531 90.5038 80.3951 90.5044 80.4372V81.998C90.5042 82.0397 90.512 82.081 90.5279 82.1195C90.5437 82.1581 90.5672 82.1931 90.5966 82.2226C90.6261 82.252 90.6611 82.2754 90.6997 82.2912C90.7384 82.3068 90.7797 82.3149 90.8214 82.3146H96.2072C96.2487 82.3146 96.29 82.3064 96.3284 82.2906C96.367 82.2745 96.4018 82.2513 96.4313 82.2219C96.4607 82.1925 96.4842 82.1577 96.5 82.1191C96.5159 82.0807 96.5241 82.0395 96.5241 81.998V80.4372C96.5234 80.3534 96.49 80.2731 96.4306 80.214C96.3712 80.1547 96.2911 80.1213 96.2072 80.1206H94.9372C94.9119 80.1201 94.8878 80.1097 94.8702 80.0916C94.8613 80.0829 94.8541 80.0726 94.8495 80.0611C94.845 80.0495 94.8428 80.0372 94.8434 80.0247L94.8881 75.4738C94.9104 73.3734 96.196 71.7881 97.8789 71.7881C98.1735 71.7711 98.4684 71.8142 98.7458 71.9145C99.0233 72.0149 99.2773 72.1707 99.4926 72.3723C100.033 72.9186 100.287 73.8461 100.269 75.2085L100.225 80.0269C100.224 80.0517 100.213 80.0753 100.195 80.0927C100.177 80.1101 100.154 80.1201 100.129 80.1206H99.169C99.0846 80.1206 99.0038 80.1538 98.944 80.2131C98.8842 80.2724 98.8505 80.3529 98.8498 80.4372V81.998C98.8498 82.0397 98.8581 82.0812 98.8742 82.1198C98.8902 82.1583 98.9137 82.1933 98.9434 82.2228C98.973 82.2522 99.0083 82.2754 99.0469 82.2912C99.0858 82.3068 99.1273 82.3149 99.169 82.3146H104.41C104.494 82.3146 104.574 82.2812 104.634 82.2219C104.693 82.1626 104.727 82.0821 104.727 81.998V80.4372C104.726 80.3534 104.693 80.2731 104.633 80.214C104.574 80.1547 104.494 80.1213 104.41 80.1206H103.236C103.21 80.1201 103.186 80.1097 103.169 80.0916C103.16 80.0827 103.153 80.0722 103.149 80.0608C103.144 80.0492 103.142 80.037 103.142 80.0247L103.187 75.4761C103.233 73.2017 104.363 71.7881 106.131 71.7881C107.642 71.7881 108.546 72.8873 108.546 74.7291C108.546 76.2899 108.474 81.0415 108.461 81.9757C108.46 82.0199 108.467 82.0638 108.484 82.105C108.5 82.1461 108.525 82.1831 108.557 82.2143C108.588 82.2455 108.625 82.2705 108.666 82.2872C108.707 82.3042 108.751 82.3126 108.796 82.3124H112.684C112.725 82.3126 112.767 82.3046 112.806 82.289C112.844 82.2732 112.88 82.25 112.909 82.2205C112.939 82.1911 112.962 82.1561 112.979 82.1175C112.995 82.079 113.003 82.0375 113.003 81.9958V80.435C113.002 80.352 112.968 80.2727 112.909 80.214C112.851 80.1551 112.771 80.1217 112.688 80.1206Z" fill="white"/>
<path d="M121.723 74.7871L118.672 74.1873C117.746 73.9844 117.172 73.699 117.172 72.9007C117.172 71.9709 117.985 71.4982 119.585 71.4982C120.406 71.4982 121.004 71.6075 121.466 71.8371C121.483 71.8441 121.497 71.8554 121.507 71.8701C121.516 71.8849 121.522 71.902 121.522 71.9196L121.56 73.0902C121.562 73.1727 121.597 73.251 121.656 73.3083C121.715 73.3658 121.795 73.398 121.877 73.398H123.875C123.917 73.3977 123.958 73.389 123.997 73.3725C124.036 73.3563 124.071 73.3322 124.101 73.3023C124.13 73.2722 124.153 73.2365 124.169 73.1975C124.185 73.1585 124.192 73.1168 124.192 73.0746L124.152 70.5506C124.151 70.4346 124.113 70.3218 124.045 70.2282C123.976 70.1345 123.88 70.0647 123.77 70.0288C122.455 69.5671 121.074 69.3229 119.681 69.3064C116.232 69.3064 114.253 70.7825 114.253 73.3578C114.253 75.8417 116.449 76.5709 118.362 76.9254L120.359 77.2866C121.183 77.4427 121.958 77.7058 122.06 78.5531C122.083 78.7587 122.064 78.9665 122.005 79.1647C121.947 79.3631 121.849 79.5478 121.719 79.7081C121.439 80.0644 121.03 80.2961 120.58 80.3525C119.464 80.4947 118.331 80.3694 117.273 79.9868L117.17 79.9534C117.148 79.9464 117.129 79.9326 117.115 79.9143C117.102 79.8958 117.094 79.8738 117.094 79.8508L117.056 78.5509C117.054 78.4684 117.019 78.3901 116.96 78.3328C116.901 78.2753 116.822 78.2432 116.739 78.2432H114.744C114.66 78.2438 114.58 78.2775 114.521 78.3368C114.462 78.3966 114.43 78.4764 114.429 78.5598L114.471 81.4584C114.472 81.5659 114.504 81.6707 114.564 81.7601C114.623 81.8497 114.707 81.92 114.806 81.9623C116.198 82.5151 117.683 82.7951 119.181 82.7873C124.297 82.7873 124.85 79.6657 124.85 78.3279C124.846 75.7682 123.268 75.1015 121.723 74.7871Z" fill="white"/>
<path d="M120.259 45.6221C120.648 45.6221 121.027 45.5069 121.35 45.2912C121.673 45.0754 121.925 44.769 122.074 44.4103C122.222 44.0515 122.261 43.6568 122.185 43.2762C122.109 42.8956 121.922 42.546 121.647 42.2717C121.372 41.9973 121.022 41.8106 120.641 41.7353C120.26 41.6597 119.865 41.6989 119.506 41.8476C119.147 41.9966 118.84 42.2483 118.625 42.5714C118.409 42.8943 118.294 43.274 118.295 43.6622C118.295 44.1822 118.503 44.6807 118.871 45.0482C119.239 45.4157 119.738 45.6221 120.259 45.6221Z" fill="white"/>
<path d="M58.587 60.1525C58.6426 60.1307 58.6908 60.0934 58.7259 60.0453C58.7611 59.9971 58.7819 59.9398 58.7857 59.8805L58.8973 58.1502C58.9013 58.0956 58.8908 58.041 58.8671 57.9915C58.8435 57.9422 58.8073 57.8998 58.762 57.8688C58.7169 57.8378 58.6647 57.8189 58.61 57.8144C58.5553 57.8097 58.5006 57.8193 58.4509 57.8425C57.3027 58.3669 56.0553 58.6392 54.7926 58.6408C52.42 58.6408 50.7461 57.1647 50.6278 54.9706C50.6278 54.9452 50.6378 54.9207 50.6559 54.9028C50.674 54.8848 50.6983 54.8747 50.7237 54.8747H59.2566C59.3412 54.8747 59.4225 54.8411 59.4823 54.7813C59.5421 54.7216 59.5758 54.6404 59.5758 54.5559V54.402C59.5758 50.1945 57.4197 47.6816 53.8106 47.6816C50.0162 47.6816 47.561 50.3105 47.561 54.3708C47.561 58.4312 50.1278 60.9485 54.257 60.9708C55.7383 60.9646 57.2059 60.6872 58.587 60.1525ZM53.661 49.8757C55.9979 49.8757 56.509 51.9114 56.509 52.6963V52.8256H50.7371C50.7235 52.8252 50.7101 52.8221 50.6978 52.8163C50.6856 52.8105 50.6746 52.8022 50.6657 52.7922C50.657 52.7835 50.6505 52.773 50.6465 52.7612C50.6427 52.7496 50.6416 52.7373 50.6434 52.7253C50.7572 51.6595 51.3018 49.8757 53.6633 49.8757H53.661Z" fill="white"/>
</g>
</g>
<defs>
<clipPath id="clip0_420_2520">
<rect width="127" height="66" fill="white" transform="translate(26 17)"/>
</clipPath>
</defs>
</svg>
