<svg width="180" height="100" viewBox="0 0 180 100" fill="none" xmlns="http://www.w3.org/2000/svg">
<g clip-path="url(#clip0_1143_2567)">
<path d="M109.838 45.8997C107.354 45.8997 105.621 47.8813 105.621 50.3304C105.621 52.7796 107.389 54.7962 109.873 54.7962C112.358 54.7962 114.091 52.8114 114.091 50.3654C114.091 47.9194 112.323 45.8997 109.838 45.8997Z" fill="#242021"/>
<path d="M95.3089 46.0938H93.111C92.9138 46.0938 92.7548 46.2528 92.7548 46.45V50.2383C92.7548 50.4355 92.917 50.5945 93.111 50.5945H95.3089C96.9724 50.5945 98.0062 49.6816 98.0062 48.3425C98.0062 46.8603 96.9533 46.0906 95.3089 46.0906V46.0938Z" fill="#242021"/>
<path d="M155.927 38.5586H50.2474C47.9541 38.5586 46.0966 40.4161 46.0966 42.7063V58.2473C46.0966 60.5375 47.9541 62.3982 50.2474 62.3982H155.927C158.221 62.3982 160.075 60.5406 160.075 58.2473V42.7063C160.075 40.413 158.217 38.5586 155.927 38.5586ZM58.0307 54.7613C59.3221 54.7613 60.3558 54.2301 61.2718 53.4412C61.4182 53.314 61.6472 53.3299 61.7744 53.4794L62.7159 54.5768C62.8431 54.7263 62.8272 54.9489 62.6777 55.0793C61.5486 56.0654 60.149 56.781 58.0466 56.781C54.271 56.781 51.6151 53.8866 51.596 50.3305C51.596 50.3432 51.596 50.3528 51.596 50.3655V50.2955C51.596 50.2955 51.596 50.3178 51.596 50.3305C51.6151 46.7744 54.271 43.88 58.0466 43.88C60.149 43.88 61.5486 44.5956 62.6777 45.5817C62.824 45.7121 62.8431 45.9379 62.7159 46.0842L61.7744 47.1816C61.644 47.3311 61.4182 47.347 61.2718 47.2197C60.3558 46.4277 59.3252 45.8997 58.0307 45.8997C55.6356 45.8997 53.9021 47.8654 53.9021 50.3305C53.9021 52.7956 55.6356 54.7613 58.0307 54.7613ZM78.2665 56.2435C78.2665 56.4375 78.1043 56.5997 77.9103 56.5997H76.4249C76.2277 56.5997 76.0686 56.4375 76.0686 56.2435V52.4711C76.0686 52.2739 75.9064 52.1149 75.7124 52.1149H69.9298C69.7326 52.1149 69.5736 52.2739 69.5736 52.4711V56.2435C69.5736 56.4375 69.4145 56.5997 69.2173 56.5997H67.7319C67.5347 56.5997 67.3757 56.4375 67.3757 56.2435V44.4493C67.3757 44.2521 67.5347 44.0931 67.7319 44.0931H69.2173C69.4145 44.0931 69.5736 44.2521 69.5736 44.4493V49.7198C69.5736 49.917 69.7358 50.076 69.9298 50.076H75.7124C75.9096 50.076 76.0686 49.917 76.0686 49.7198V44.4493C76.0686 44.2521 76.2277 44.0931 76.4249 44.0931H77.9103C78.1075 44.0931 78.2665 44.2521 78.2665 44.4493V56.2435ZM85.6712 56.2435C85.6712 56.4375 85.5122 56.5997 85.315 56.5997H83.8328C83.6356 56.5997 83.4765 56.4375 83.4765 56.2435V44.4493C83.4765 44.2521 83.6356 44.0931 83.8328 44.0931H85.315C85.5122 44.0931 85.6712 44.2521 85.6712 44.4493V56.2435ZM95.2389 52.5793H93.111C92.9138 52.5793 92.7547 52.7415 92.7547 52.9355V56.2435C92.7547 56.4375 92.5957 56.5997 92.3985 56.5997H90.9131C90.7159 56.5997 90.5569 56.4375 90.5569 56.2435V44.4493C90.5569 44.2521 90.7159 44.0931 90.9131 44.0931H95.487C98.4005 44.0931 100.239 45.7343 100.239 48.2916C100.239 51.1161 97.9902 52.5793 95.2389 52.5793ZM109.838 56.816C105.996 56.816 103.318 53.9025 103.318 50.3655C103.318 46.8285 106.031 43.88 109.873 43.88C113.716 43.88 116.394 46.7935 116.394 50.3305C116.394 53.8675 113.678 56.816 109.835 56.816H109.838ZM128.697 45.7725C128.697 45.9697 128.538 46.1287 128.341 46.1287H125.087C124.89 46.1287 124.731 46.291 124.731 46.485V56.2435C124.731 56.4375 124.572 56.5997 124.374 56.5997H122.873C122.676 56.5997 122.517 56.4375 122.517 56.2435V46.485C122.517 46.2878 122.358 46.1287 122.161 46.1287H118.907C118.71 46.1287 118.55 45.9697 118.55 45.7725V44.4493C118.55 44.2521 118.713 44.0931 118.907 44.0931H128.341C128.538 44.0931 128.697 44.2521 128.697 44.4493V45.7725ZM141.267 56.2435C141.267 56.4375 141.108 56.5997 140.911 56.5997H132.851C132.654 56.5997 132.495 56.4375 132.495 56.2435V44.4493C132.495 44.2521 132.654 44.0931 132.851 44.0931H134.336C134.531 44.0931 134.693 44.2521 134.693 44.4493V54.2428C134.693 54.44 134.852 54.599 135.049 54.599H140.911C141.108 54.599 141.267 54.7613 141.267 54.9553V56.2435ZM153.749 56.2435C153.749 56.4375 153.589 56.5997 153.392 56.5997H144.744C144.547 56.5997 144.388 56.4375 144.388 56.2435V44.4493C144.388 44.2521 144.547 44.0931 144.744 44.0931H153.303C153.5 44.0931 153.659 44.2521 153.659 44.4493V45.6993C153.659 45.8965 153.5 46.0556 153.303 46.0556H146.942C146.745 46.0556 146.585 46.2146 146.585 46.4118V49.7357C146.585 49.9329 146.745 50.0919 146.942 50.0919H151.713C151.91 50.0919 152.069 50.251 152.069 50.4482V51.7014C152.069 51.8986 151.907 52.0576 151.713 52.0576H146.942C146.745 52.0576 146.585 52.2198 146.585 52.4139V54.2746C146.585 54.4718 146.745 54.6308 146.942 54.6308H153.392C153.589 54.6308 153.749 54.7899 153.749 54.9871V56.2403V56.2435Z" fill="#242021"/>
<path d="M39.751 38.5618H24.2258C21.9325 38.5618 20.075 40.4193 20.075 42.7094V58.2505C20.075 60.5438 21.9325 62.4014 24.2258 62.4014H39.751C42.0443 62.4014 43.9018 60.5438 43.9018 58.2505V42.7094C43.8986 40.4193 42.0411 38.5618 39.751 38.5618ZM38.466 43.072L38.1352 44.2839C38.1352 44.2839 38.1415 44.2903 38.1511 44.2966C38.1606 44.303 38.1701 44.3125 38.1765 44.3189C38.1861 44.3284 38.1861 44.3253 38.1765 44.3189C38.1701 44.3157 38.1638 44.3062 38.1511 44.2966C38.1447 44.2935 38.1415 44.2903 38.1352 44.2839C38.0143 44.1853 37.1205 44.268 36.9074 44.2839C36.6943 44.303 37.1014 44.0326 37.1968 43.9372C37.2923 43.8418 37.6771 43.5714 37.6294 43.4156C37.5817 43.2597 36.9996 42.1337 36.9996 42.1337C36.9996 42.1337 35.9818 42.1242 35.5015 42.1814C35.0212 42.2387 34.0066 43.247 34.0066 43.247L33.6376 44.7038C33.6376 44.7038 33.7839 44.9741 33.997 45.1459C34.2101 45.3208 34.824 45.2604 35.0562 45.2413C35.2884 45.2222 35.1898 45.4926 34.999 45.6643C34.8049 45.8393 34.1115 45.8393 34.1115 45.8393L34.401 45.9347C34.7222 46.2242 35.3043 47.7064 35.651 48.0499C35.9945 48.3934 35.6415 50.1333 35.1453 50.6295C34.6491 51.1225 34.4137 52.188 34.1115 52.487C33.8094 52.7892 33.4976 52.6683 33.8094 52.9832C34.1211 53.2949 33.9748 53.6734 34.0257 53.9438C34.0575 54.1219 34.1083 54.4464 34.261 54.5958C34.4105 54.7453 36.6975 56.3325 37.6167 56.4025C37.7853 56.4152 37.7853 57.2231 36.8438 58.2123C36.8438 58.2123 36.6752 58.7849 35.1071 58.8358C33.3959 58.8898 31.7101 58.6036 31.322 58.6036C30.934 58.6036 29.8112 57.9642 29.8112 57.9642C29.5949 57.9642 26.2583 52.9864 26.2583 52.6461C26.2583 52.3057 26.0038 51.3738 26.0038 51.0271C26.0038 50.6804 26.4014 47.5314 26.3378 47.1497C26.2869 46.8508 26.4428 46.7808 26.7895 46.4341C27.133 46.0906 27.7564 45.5053 27.9918 45.2699C28.0999 45.165 28.9238 45.1872 29.9225 44.9741L30.0784 44.9073L29.8812 44.8119C29.8812 44.8119 29.5599 44.408 29.0383 44.427C28.5198 44.4461 28.3449 44.4843 28.6152 44.3698C28.8856 44.2553 29.3691 43.8895 29.3691 43.8895L30.5014 44.3889H31.1185L32.1935 43.5046L34.6268 41.5262L36.6688 41.2304C36.8279 41.2495 37.5276 41.4944 37.5276 41.4944C37.5276 41.4944 38.202 42.4836 38.3769 42.6967C38.5487 42.9098 38.4723 43.0625 38.4723 43.0625L38.466 43.072Z" fill="#242021"/>
<path d="M33.2496 46.0842L32.9697 46.2432C32.693 46.4022 32.3495 46.7299 32.3495 46.7299C32.3495 46.7299 32.1109 46.8094 31.5575 46.698C31.2585 46.6376 31.1535 46.4277 31.1535 46.1923C31.1535 45.9569 30.9977 46.0142 30.9977 46.0142C30.9977 46.0142 28.4467 46.1478 28.2431 46.2686C28.0396 46.3863 27.149 47.6077 27.149 47.6077C27.149 47.6077 26.675 52.2516 27.0408 52.6174C27.4798 53.0532 29.5186 56.6442 29.9448 57.0736C30.3679 57.6557 33.749 57.7829 34.2643 57.7829C34.7795 57.7829 36.2204 57.0163 35.6861 56.6633C35.3489 56.4406 34.9545 56.148 34.2229 55.585C33.8953 55.3337 33.7522 55.4037 33.6536 55.4037C33.3514 55.4037 33.8412 54.9171 33.679 54.5227C33.5009 54.0964 33.3991 53.438 33.2496 53.2885C33.1001 53.1359 33.1606 52.3438 33.4754 52.029C33.819 51.6854 34.3152 50.6835 34.5887 50.2955C34.9131 49.8374 35.1358 48.8291 35.0054 48.6987C34.875 48.5715 34.2865 47.3469 34.0289 47.0861C33.8635 46.9207 33.59 46.5104 33.3164 46.1764L33.2528 46.0842H33.2496ZM34.0353 48.6924C34.2293 48.9055 32.4512 51.5709 32.2032 52.0512C32.0727 52.3025 32.2699 53.5112 32.2668 53.6702C32.2668 53.842 33.0079 56.0112 33.3228 56.2148C33.6472 56.4279 33.6854 56.7364 33.609 56.8478C33.4405 57.099 32.1332 56.5933 32.0727 56.5551C31.9232 56.4661 30.9658 55.5214 30.8195 55.1238C30.7464 54.9202 29.4041 52.2643 29.3087 51.9367C29.2133 51.6059 29.1846 49.3222 29.684 49.0582C30.0116 48.8864 30.9595 48.8355 31.233 48.9277C31.6879 49.0804 31.9042 49.5798 31.9328 49.8724C31.9455 49.9996 31.2426 51.9717 31.0994 52.2198C31.0008 52.3852 30.7241 52.6651 30.5015 51.7713C30.4537 51.5868 30.546 51.0493 30.5905 50.9889C30.6351 50.9284 30.7623 51.0079 30.8259 51.0588C30.8927 51.1097 30.8927 51.6186 30.9181 51.6632C30.9945 51.7968 31.4938 50.1905 31.5193 50.1205C31.5511 50.0346 31.3825 49.6848 31.0676 49.5448C30.7209 49.3921 30.2438 49.4653 30.0816 49.583C29.843 49.7579 29.9639 51.0334 29.9226 51.1956C29.8939 51.3165 29.8399 51.8826 29.9894 52.258C30.212 52.8178 31.5066 55.4546 31.5797 55.496C31.6561 55.5373 32.8202 56.5774 32.4481 55.6836C32.3622 55.4801 31.8978 54.3541 31.8565 54.2364C31.7165 53.8293 31.6624 52.3438 31.6561 52.1912C31.6497 52.0512 33.1256 49.0804 33.1097 49.02C33.0938 48.9627 33.5009 48.7942 32.4512 48.3107C32.3622 48.2693 31.3157 47.9131 30.616 48.0562C30.3965 48.1008 30.0593 48.0944 29.8208 48.1644C29.6649 48.2089 28.9015 48.2948 28.8189 48.3552C28.6439 48.4888 28.4626 49.0836 28.4435 49.3476C28.4117 49.847 28.3227 51.097 28.4435 51.6282C28.4976 51.8699 28.7393 53.2949 29.8526 54.9457C30.1548 55.3942 30.0212 55.5532 29.8526 55.3242C29.7603 55.197 29.5345 55.1461 29.4264 55.0347C29.0192 54.634 28.8125 53.8674 28.5803 53.6384C28.3195 53.3744 27.8519 52.2071 27.8106 51.8477C27.7724 51.4882 27.7279 49.6752 27.7279 49.6752L28.1414 47.8686C28.3608 47.471 28.8252 47.5537 29.1115 47.4996C29.5282 47.4233 30.4697 47.2356 30.5015 47.2579C30.8991 47.5505 32.2572 48.0212 32.5944 47.5632C32.9697 47.0575 33.7649 48.4029 34.0257 48.6892L34.0353 48.6924Z" fill="#242021"/>
</g>
<defs>
<clipPath id="clip0_1143_2567">
<rect width="140" height="23.8428" fill="white" transform="translate(20.075 38.5586)"/>
</clipPath>
</defs>
</svg>
