<svg width="180" height="100" viewBox="0 0 180 100" fill="none" xmlns="http://www.w3.org/2000/svg">
<path d="M36.6755 26.0003C33.4588 25.9928 29.9895 26.2705 26.3554 26.8942C22.5134 27.5595 22.6638 29.7684 23.45 31.5979C24.2362 33.4275 25.2689 34.0325 28.3863 33.2741C29.692 32.9348 31.1207 32.6095 32.6042 32.3568C32.6042 32.9755 32.426 38.0183 31.9953 45.6624C31.5373 53.8453 33.1984 60.6232 38.2094 59.8448C43.2204 59.0664 39.3504 54.7691 37.8943 45.4155C42.0142 43.9596 45.9779 42.1148 49.7286 39.9075C51.383 38.8763 59.9147 33.3674 53.3109 29.5551C49.6074 27.4145 43.7524 26.0167 36.6755 26.0003ZM42.5918 31.3979C57.8641 31.1983 53.024 37.2534 37.5194 42.6092C37.1155 38.9907 36.983 35.3484 37.1228 31.7112C38.8592 31.5383 40.6777 31.4178 42.5918 31.3979ZM122.043 34.2058C121.16 34.1947 121.352 34.9521 122.345 36.0756C124.984 39.076 123.91 44.7968 118.154 48.3493C110.634 53.0063 104.146 51.8753 103.572 49.0146C103.494 48.5999 103.467 48.1778 103.49 47.7569C105.931 47.7569 107.593 47.6973 112.993 45.9144C119.351 43.8121 121.196 39.5085 117.818 37.12C114.441 34.7317 106.088 36.295 101.262 42.5553C96.4351 48.8156 98.5273 55.7804 105.124 56.6785C107.088 56.8878 109.075 56.6604 110.935 56.0132C115.292 54.5213 119.205 52.0106 122.331 48.7018C121.306 52.9197 120.622 56.606 124.163 57.6438C130.562 59.5066 124.881 48.0439 131.341 40.3C132.241 39.1926 133.383 38.2934 134.683 37.6676C135.984 37.0418 137.411 36.7049 138.861 36.6812C142.061 36.761 138.929 33.6073 134.431 34.6983C131.593 35.4628 129.031 36.9835 127.034 39.0889C127.034 39.0889 125.605 34.8911 122.488 34.2591C122.317 34.225 122.169 34.2074 122.043 34.2058ZM77.6969 35.9808C76.4648 35.8962 76.6308 36.6201 77.546 37.3595C79.3166 38.8164 79.7406 40.1335 78.5648 45.2962C77.177 51.184 76.1651 54.6035 73.6698 54.1578C71.1746 53.712 71.251 50.5114 72.0235 47.3114C72.796 44.1114 72.5078 41.6898 69.7323 41.1575C66.9567 40.6253 66.8678 42.7476 62.896 47.1451C58.9241 51.5426 54.2282 54.8024 52.3961 53.7316C50.564 52.6608 54.009 43.932 64.2085 39.8805C68.4607 38.1973 67.8796 36.8277 65.5758 36.4618C60.1068 35.6036 48.738 40.978 48.485 51.4166C48.3415 57.1713 54.1123 60.1125 65.1936 49.0492C65.1936 49.0492 66.1231 53.9251 69.8762 55.8344C73.6294 57.7437 75.6865 56.0535 76.9648 55.9071C78.2431 55.7608 81.129 58.5693 82.9065 52.482C84.6839 46.3947 89.0932 39.3494 91.2878 39.7419C93.4822 40.1344 85.6407 48.809 91.185 54.73C94.0152 57.7437 98.9243 57.3574 97.4338 55.8539C95.8696 54.2945 94.8158 52.3188 94.4056 50.1766C93.9954 48.0344 94.2472 45.8219 95.1292 43.819C97.2689 38.4635 97.7207 36.2754 92.8259 36.9207C87.9311 37.566 84.2662 42.942 84.2662 42.942C84.2662 42.942 84.2874 37.2671 78.3124 36.0697C78.0774 36.0223 77.8729 35.9929 77.6969 35.9808ZM148.89 37.0593C146.192 37.0905 142.376 38.0988 139.219 40.7183C133.607 45.3753 132.308 53.5988 135.569 56.1668C138.83 58.7348 145.823 55.4287 150.841 49.3344C150.841 49.3344 151.436 55.0554 155.114 56.4994C156.31 56.9718 157.438 56.8393 156.83 55.9212C155.462 53.9586 154.39 50.5318 155.388 46.2474C156.393 41.8499 156.584 40.0611 154.02 40.7263C153.738 40.798 153.469 40.9101 153.221 41.059C150.22 42.5825 149.631 46.6401 144.463 51.2305C138.959 56.1203 135.241 54.0713 139.862 46.9594C144.353 40.0206 152.106 40.4334 152.318 38.4638C152.411 37.6023 150.988 37.035 148.89 37.0593ZM112.635 39.6086C117.758 39.4327 118.009 42.4641 112.413 44.198C109.713 45.1225 106.85 45.5118 103.993 45.3428C104.659 43.8564 105.701 42.5583 107.022 41.5695C108.342 40.5808 109.899 39.9334 111.546 39.6879C111.931 39.6463 112.294 39.6204 112.635 39.6086ZM128.029 64.5294C127.651 64.5333 127.282 64.6463 126.97 64.854C126.658 65.0617 126.415 65.3548 126.274 65.6963C126.133 66.0378 126.099 66.4124 126.176 66.7728C126.253 67.1331 126.439 67.4631 126.709 67.7211C126.978 67.9791 127.321 68.1534 127.693 68.2221C128.064 68.2908 128.448 68.2508 128.797 68.1071C129.145 67.9635 129.442 67.7226 129.65 67.4149C129.857 67.1072 129.967 66.7465 129.964 66.3784C129.964 66.1327 129.914 65.8895 129.816 65.663C129.718 65.4364 129.575 65.2311 129.395 65.059C129.215 64.8868 129.001 64.7514 128.767 64.6604C128.532 64.5695 128.282 64.5249 128.029 64.5294ZM127.922 64.8165C128.139 64.808 128.354 64.8421 128.557 64.9167C128.759 64.9913 128.944 65.105 129.1 65.2509C129.256 65.3967 129.38 65.5718 129.465 65.7655C129.55 65.9593 129.594 66.1677 129.594 66.3783C129.602 66.5824 129.568 66.7859 129.493 66.9766C129.418 67.1673 129.303 67.341 129.157 67.4873C129.01 67.6336 128.835 67.7493 128.641 67.8274C128.447 67.9054 128.239 67.9443 128.029 67.9415C127.605 67.9525 127.194 67.7998 126.885 67.5167C126.576 67.2337 126.395 66.8432 126.381 66.4306C126.367 66.018 126.521 65.6167 126.81 65.3143C127.098 65.0119 127.498 64.833 127.922 64.8165ZM118.844 65.053C118.8 65.0527 118.755 65.0531 118.711 65.0543H116.291V73.9964H118.711C119.432 74.0283 120.146 73.8495 120.762 73.4831C121.466 73.0374 121.774 72.3862 121.774 70.9559V68.1219C121.774 66.6849 121.445 66.0392 120.762 65.5868C120.186 65.2401 119.522 65.0554 118.844 65.053ZM63.3371 65.0543V73.9964L65.6069 73.9093C67.7672 73.9093 68.929 73.0249 68.929 71.3417C68.9249 70.8483 68.7427 70.372 68.4141 69.9962C68.0855 69.6204 67.6316 69.369 67.1318 69.2861V69.2458C67.583 69.1326 67.9812 68.8733 68.2608 68.5105C68.5404 68.1478 68.6847 67.7032 68.6699 67.2499C68.6699 65.9194 67.6098 65.054 65.5589 65.054L63.3371 65.0543ZM76.7294 65.0543V73.9964H78.0966V70.1437H79.2382L81.0221 73.9964H82.4788L80.5508 69.9579C81.0719 69.8181 81.5256 69.5039 81.8321 69.0706C82.1386 68.6373 82.2782 68.1127 82.2265 67.5891C82.2265 66.2053 81.569 65.054 78.9165 65.054L76.7294 65.0543ZM90.2447 65.0543V73.9964H95.0301V73.0842H91.612V69.8046L94.3532 69.7851V68.8599H91.6187V65.9662H94.942V65.0541L90.2447 65.0543ZM104.629 65.0751L102.489 73.9965H103.897L104.355 71.9136H106.761L107.241 73.9965H108.608L106.481 65.0751H104.629ZM127.257 65.3415V67.4829H127.599V66.5512H127.975L128.563 67.4829H128.966L128.331 66.5382C128.41 66.5403 128.489 66.5261 128.562 66.4967C128.635 66.4673 128.701 66.4232 128.756 66.3674C128.811 66.3116 128.853 66.2452 128.88 66.1726C128.906 66.0999 128.917 66.0227 128.911 65.9457H128.885C128.885 65.5333 128.631 65.3415 128.105 65.3415L127.257 65.3415ZM127.599 65.613H128.057C128.44 65.613 128.55 65.7265 128.55 65.9327C128.55 66.1389 128.413 66.2783 127.995 66.2783H127.599V65.613ZM118.611 65.9847C119.007 65.9875 119.397 66.0862 119.744 66.2718C119.991 66.4531 120.183 66.6943 120.303 66.9713C120.424 67.2482 120.466 67.5511 120.428 67.8493V71.229C120.467 71.5261 120.424 71.828 120.304 72.1038C120.184 72.3797 119.991 72.6194 119.744 72.7986C119.371 73.0015 118.948 73.1004 118.521 73.0845H117.667V65.9859H118.521C118.551 65.985 118.581 65.9846 118.611 65.9847ZM78.0775 65.986H78.7611C80.4223 65.986 80.812 66.7108 80.812 67.6089V67.6492C80.812 68.5939 80.3474 69.2591 78.9801 69.2591H78.0975L78.0775 65.986ZM64.705 66.0067H65.4567C66.6804 66.0067 67.2887 66.5179 67.2887 67.3828C67.2915 67.5911 67.2493 67.7976 67.1647 67.9889C67.0802 68.1802 66.9552 68.352 66.7979 68.4932C66.6406 68.6344 66.4545 68.7418 66.2517 68.8084C66.0489 68.875 65.834 68.8993 65.6209 68.8797H64.705V66.0067ZM105.532 66.4524H105.594C105.628 66.7385 105.743 67.2566 105.804 67.6491L106.558 70.9755H104.581L105.313 67.6491C105.41 67.2547 105.483 66.8551 105.532 66.4524ZM64.705 69.8243H65.6343C66.817 69.8243 67.501 70.3965 67.501 71.3745C67.501 72.4988 66.9134 73.0845 65.4915 73.0845L64.705 73.1052V69.8243Z" fill="#242021"/>
</svg>
