<svg width="180" height="100" viewBox="0 0 180 100" fill="none" xmlns="http://www.w3.org/2000/svg">
<g clip-path="url(#clip0_678_2517)">
<path d="M159.75 42.848H156.41V58.0443H159.75V47.1799C160.205 46.5271 160.812 45.994 161.519 45.6263C162.226 45.2586 163.012 45.0672 163.81 45.0687C166.11 45.0687 167.66 46.4728 167.66 48.7533V58.0443H171V48.106C171 44.8696 168.65 42.5891 165.04 42.5891C162.8 42.5891 160.94 43.5152 159.74 45.0986V42.848H159.75ZM146.42 44.9293C148.78 44.9293 150.41 46.3135 150.92 48.7831H142.02C142.5 46.3334 144.14 44.9293 146.42 44.9293ZM146.48 58.353C150.18 58.353 152.9 56.4012 153.89 53.1747H150.61C150.31 54.0113 149.752 54.7318 149.015 55.2328C148.279 55.7338 147.402 55.9894 146.51 55.963C143.85 55.963 142.04 54.1307 141.87 51.0038H154.31V50.3864C154.31 45.3774 150.87 42.5692 146.48 42.5692C141.88 42.5692 138.51 45.6065 138.51 50.4661C138.51 55.2858 141.83 58.353 146.48 58.353ZM128.62 44.9293C130.97 44.9293 132.61 46.3135 133.12 48.7831H124.22C124.69 46.3334 126.32 44.9293 128.62 44.9293ZM128.68 58.353C132.38 58.353 135.1 56.4012 136.08 53.1747H132.81C132.508 54.0096 131.949 54.7284 131.213 55.2289C130.477 55.7295 129.601 55.9863 128.71 55.963C126.05 55.963 124.24 54.1307 124.07 51.0038H136.51V50.3864C136.51 45.3774 133.07 42.5692 128.68 42.5692C124.08 42.5692 120.71 45.6065 120.71 50.4661C120.71 55.2858 124.01 58.353 128.68 58.353ZM114.99 42.848H111.65V58.0443H115V47.6579C116 45.9351 118.1 45.2679 120.2 45.6065V42.5692C117.85 42.4497 116.1 43.4655 115 45.3774V42.848H114.99ZM101.15 53.334C98.61 53.334 96.75 51.8702 96.75 49.2313C96.75 46.5027 98.58 44.999 101.15 44.999C103.73 44.999 105.56 46.4927 105.56 49.2313C105.56 51.8702 103.69 53.334 101.16 53.334H101.15ZM97.05 58.0443H93.85C94.64 61.6989 97.75 63.4217 101.95 63.4217C106.13 63.4217 108.93 61.5097 108.93 58.6019C108.93 56.3215 107.26 55.2858 104.72 54.5788C105.924 54.2806 106.987 53.5755 107.727 52.584C108.468 51.5924 108.84 50.3758 108.78 49.1416C108.78 47.6778 108.28 46.3832 107.4 45.3376C108.138 45.1662 108.904 45.1459 109.65 45.2778V42.4696C108.948 42.4156 108.242 42.5252 107.589 42.7896C106.937 43.0541 106.355 43.4662 105.89 43.9932C104.47 43.0778 102.812 42.5966 101.12 42.609C96.68 42.609 93.51 45.3177 93.51 49.1416C93.51 54.1805 97.75 55.3655 101.82 56.3016C105.02 57.0285 105.69 57.7654 105.69 58.831C105.69 60.0259 104.76 61.0516 101.87 61.0516C99.4 61.0516 97.7 60.1554 97.05 58.0443ZM87.78 53.7622V45.3177H92.59V42.848H87.79V40H84.48V42.848H80.6V45.3276H84.47V54.3697C84.47 56.8991 85.82 58.1737 89.22 58.1737C90.24 58.1737 91.32 58.0542 92.58 57.7256V55.3058C91.48 55.5846 90.63 55.6642 89.95 55.6642C88.05 55.6642 87.77 54.9672 87.77 53.7622H87.78ZM72.37 44.9293C74.72 44.9293 76.35 46.3135 76.86 48.7831H67.96C68.44 46.3334 70.09 44.9293 72.36 44.9293H72.37ZM72.43 58.353C76.13 58.353 78.85 56.4012 79.83 53.1747H76.55C76.2516 54.0122 75.6936 54.7336 74.9567 55.2348C74.2197 55.7359 73.3419 55.9909 72.45 55.963C69.79 55.963 67.98 54.1307 67.82 51.0038H80.26V50.3864C80.26 45.3774 76.81 42.5692 72.43 42.5692C67.82 42.5692 64.45 45.6065 64.45 50.4661C64.45 55.2858 67.77 58.353 72.43 58.353ZM54.57 44.9293C56.92 44.9293 58.55 46.3135 59.06 48.7831H50.16C50.64 46.3334 52.27 44.9293 54.56 44.9293H54.57ZM54.62 58.353C58.32 58.353 61.04 56.4012 62.03 53.1747H58.75C58.4489 54.0105 57.8903 54.7301 57.154 55.2309C56.4177 55.7316 55.5413 55.9879 54.65 55.963C51.99 55.963 50.18 54.1307 50.01 51.0038H62.46V50.3864C62.46 45.3774 59.01 42.5692 54.62 42.5692C50.02 42.5692 46.65 45.6065 46.65 50.4661C46.65 55.2858 49.95 58.353 54.62 58.353ZM38.46 58.0443H41.84L46.11 42.848H43.03L40.11 54.1008L36.81 42.848H33.87L30.62 53.9315L27.74 42.848H24.46L28.76 58.0443H32.14L35.28 47.0604L38.46 58.0443ZM16.89 58.343C20.94 58.343 23.76 56.3812 23.76 53.5929C23.76 47.5782 12.45 50.1872 12.45 46.7517C12.45 45.6363 13.63 44.8496 15.87 44.8496C18.3 44.8496 19.85 45.8056 20.44 47.8969H23.58C22.88 44.4513 20.08 42.5294 15.9 42.5294C11.78 42.5294 9.24 44.3517 9.24 47.1102C9.24 52.9755 20.54 50.2669 20.54 53.9315C20.54 55.1265 19.42 56.0427 16.88 56.0427C14.34 56.0427 12.73 54.9473 12.18 52.6668H9C9.7 56.4609 12.62 58.343 16.89 58.343Z" fill="#242021"/>
</g>
<defs>
<clipPath id="clip0_678_2517">
<rect width="162" height="23.4217" fill="white" transform="translate(9 40)"/>
</clipPath>
</defs>
</svg>
