<svg width="180" height="100" viewBox="0 0 180 100" fill="none" xmlns="http://www.w3.org/2000/svg">
<g clip-path="url(#clip0_678_2501)">
<path d="M100.539 51.0158C100.539 47.8969 99.2037 45.1413 94.6881 45.1413C92.3711 45.1413 90.5308 45.8016 89.5328 46.3794L90.2643 48.8817C91.1833 48.3054 92.6492 47.8308 94.0327 47.8308C96.3189 47.8275 96.6934 49.1206 96.6934 49.952V50.1521C91.7029 50.1441 88.5482 51.8682 88.5482 55.3794C88.5482 57.5248 90.15 59.5363 92.9494 59.5363C94.6574 59.5363 96.1006 58.8469 96.9627 57.7589H97.0469C97.0469 57.7589 97.6153 60.1368 100.758 59.2279C100.599 58.2319 100.539 57.1826 100.539 55.9073V51.0158ZM96.8158 54.3091C96.8158 54.5609 96.7949 54.8224 96.7206 55.0468C96.4333 56.0074 95.4423 56.8113 94.2086 56.8113C93.1671 56.8113 92.3502 56.222 92.3502 54.9871C92.3502 53.0983 94.4362 52.5785 96.8158 52.5914" fill="#242021"/>
<path d="M24.136 40.8972C24.136 40.8972 27.3956 54.2316 27.9139 56.3915C28.5242 58.9164 29.6172 59.8495 32.7719 59.2279L34.8094 50.9593C35.3244 48.9107 35.6747 47.4417 36.0073 45.3544H36.0638C36.2946 47.4627 36.6272 48.9107 37.0486 50.9658C37.0486 50.9658 37.88 54.7223 38.3111 56.6902C38.7309 58.6581 39.9126 59.8995 43.0077 59.2279L47.8575 40.8972H43.9424L42.2779 48.8268C41.8372 51.124 41.4368 52.9337 41.1252 55.0387H41.0686C40.7878 52.9562 40.431 51.2209 39.9724 48.9705L38.2482 40.8972H34.1636L32.323 48.7639C31.7983 51.1659 31.3075 53.0919 30.9991 55.1308H30.9459C30.6278 53.2178 30.1968 50.7817 29.7399 48.47C29.7399 48.47 28.6469 42.8377 28.261 40.8972" fill="#242021"/>
<path d="M58.7686 51.0158C58.7686 47.8969 57.4301 45.1413 52.9144 45.1413C50.6042 45.1413 48.7605 45.8016 47.7627 46.3794L48.494 48.8817C49.4095 48.3054 50.8738 47.8308 52.2622 47.8308C54.5483 47.8275 54.9229 49.1206 54.9229 49.952V50.1521C49.9326 50.1441 46.7747 51.8682 46.7747 55.3794C46.7747 57.5248 48.3827 59.5363 51.1693 59.5363C52.8935 59.5363 54.3239 58.8469 55.1861 57.7589H55.2732C55.2732 57.7589 55.8447 60.1368 58.9849 59.2279C58.8235 58.2319 58.7686 57.1826 58.7686 55.9073V51.0158ZM55.0424 54.3091C55.0424 54.5609 55.0214 54.8224 54.9504 55.0468C54.6597 56.0074 53.6685 56.8113 52.4318 56.8113C51.3969 56.8113 50.5767 56.222 50.5767 54.9871C50.5767 53.0983 52.6626 52.5785 55.0424 52.5914" fill="#242021"/>
<path d="M60.7995 40.8972V59.2215H64.5257V55.3358V40.8972H60.7995Z" fill="#242021"/>
<path d="M111.974 40.8972V54.4172C111.974 56.2834 112.325 57.5846 113.079 58.382C113.74 59.081 114.824 59.5363 116.114 59.5363C117.221 59.5363 118.305 59.3232 118.817 59.1375L118.772 56.2269C118.389 56.3157 117.951 56.3915 117.35 56.3915C116.078 56.3915 115.659 55.586 115.659 53.9103V48.7348H118.904V45.2333H115.659V40.8972" fill="#242021"/>
<path d="M102.344 45.4587V59.2274H106.196V52.176C106.196 51.7966 106.221 51.4689 106.28 51.1654C106.568 49.6786 107.696 48.7375 109.322 48.7375C109.775 48.7375 110.083 48.7875 110.426 48.8407V45.2311C110.139 45.1794 109.943 45.152 109.589 45.152C108.148 45.152 106.514 46.0673 105.825 48.0611H105.729V45.4587" fill="#242021"/>
<path d="M66.6907 45.4587V59.2274H70.4443V51.1461C70.4443 50.7667 70.4863 50.3792 70.6203 50.0289C70.9255 49.2104 71.6826 48.2628 72.8983 48.2628C74.4094 48.2628 75.123 49.5382 75.123 51.3785V59.2274H78.8671V51.0492C78.8671 50.6924 78.9171 50.2549 79.022 49.9385C79.3223 49.0103 80.1425 48.2628 81.2759 48.2628C82.8033 48.2628 83.5424 49.5107 83.5424 51.6804V59.2274H87.2834V51.1089C87.2834 46.8438 85.1133 45.152 82.6495 45.152C81.5665 45.152 80.7043 45.4184 79.9294 45.8962C79.2739 46.2982 78.6992 46.8648 78.1841 47.6058H78.1276C77.5351 46.1238 76.1434 45.152 74.3255 45.152C71.9942 45.152 70.9351 46.3289 70.312 47.3233H70.2554V45.4587" fill="#242021"/>
<path d="M139.063 44.8418C139.799 44.8418 140.419 44.4576 140.5 43.9636L141.23 35.6983C141.23 34.8798 140.266 34.2098 139.063 34.2098C137.854 34.2098 136.896 34.8798 136.896 35.6983L137.632 43.9636C137.71 44.4576 138.327 44.8418 139.063 44.8418Z" fill="#242021"/>
<path d="M134.586 47.4291C134.951 46.7833 134.93 46.0666 134.536 45.7469L127.723 40.983C127.015 40.5697 125.954 41.0621 125.347 42.105C124.741 43.1462 124.864 44.315 125.558 44.7202L133.101 48.2168C133.583 48.3977 134.215 48.0619 134.586 47.4226" fill="#242021"/>
<path d="M143.54 47.4202C143.926 48.0594 144.557 48.3952 145.027 48.2241L152.57 44.7178C153.27 44.3045 153.376 43.147 152.783 42.1057C152.178 41.0629 151.11 40.5738 150.403 40.979L143.589 45.738C143.211 46.0625 143.183 46.7825 143.548 47.4266" fill="#242021"/>
<path d="M139.063 55.1659C139.799 55.1659 140.419 55.5501 140.5 56.0441L141.23 64.3095C141.23 65.1279 140.266 65.7914 139.063 65.7914C137.854 65.7914 136.896 65.1279 136.896 64.3095L137.632 56.0441C137.71 55.5501 138.327 55.1659 139.063 55.1659Z" fill="#242021"/>
<path d="M143.54 52.5862C143.926 51.9453 144.557 51.603 145.027 51.7887L152.57 55.2886C153.27 55.6938 153.376 56.8609 152.783 57.9038C152.178 58.9386 151.11 59.431 150.403 59.0257L143.589 54.2602C143.211 53.939 143.183 53.2223 143.548 52.5862" fill="#242021"/>
<path d="M134.586 52.5793C134.951 53.2234 134.93 53.9386 134.536 54.2614L127.723 59.0189C127.015 59.4322 125.954 58.9382 125.347 57.9034C124.741 56.8621 124.864 55.6933 125.558 55.2881L133.101 51.7883C133.583 51.6042 134.215 51.9433 134.586 52.5793Z" fill="#242021"/>
<path d="M154.777 58.2996H154.871C154.998 58.2996 155.05 58.34 155.064 58.4417C155.092 58.5547 155.106 58.6305 155.134 58.6628H155.376C155.355 58.6386 155.328 58.5772 155.313 58.4352C155.285 58.3125 155.223 58.2431 155.134 58.2189V58.1963C155.256 58.1688 155.328 58.0865 155.328 57.9848C155.328 57.8928 155.285 57.8266 155.243 57.7846C155.163 57.7459 155.086 57.7152 154.914 57.7152C154.762 57.7152 154.651 57.7281 154.562 57.7492V58.6628H154.777V58.2996ZM154.784 57.8831L154.893 57.8686C155.022 57.8686 155.092 57.9283 155.092 58.0123C155.092 58.1059 154.998 58.1495 154.879 58.1495H154.784V57.8831ZM154.921 57.2632C154.391 57.2632 153.971 57.6765 153.971 58.1834C153.971 58.7032 154.391 59.1165 154.921 59.1165C155.456 59.1165 155.863 58.7032 155.863 58.1834C155.863 57.6765 155.456 57.2632 154.921 57.2632ZM154.921 57.4488C155.328 57.4488 155.629 57.7782 155.629 58.1834C155.629 58.5918 155.328 58.9308 154.921 58.9244C154.514 58.9244 154.205 58.5918 154.205 58.1834C154.205 57.7782 154.514 57.4488 154.914 57.4488" fill="#242021"/>
</g>
<defs>
<clipPath id="clip0_678_2501">
<rect width="131.727" height="31.582" fill="white" transform="translate(24.1365 34.209)"/>
</clipPath>
</defs>
</svg>
